<svg width="162" height="58" viewBox="0 0 162 58" fill="none" xmlns="http://www.w3.org/2000/svg">
<path d="M4.61914 30.3344H7.49805L8.99121 41.184L14.2549 30.3344H17.3701L9.50684 45.975H7.06836L4.61914 30.3344ZM2.73926 30.3344H5.84375L4.31836 42.4838L3.70605 45.975H0.0322266L2.73926 30.3344ZM16.0059 30.3344H19.1318L16.4248 45.975H12.7295L13.3955 42.1723L16.0059 30.3344ZM25.6846 42.9672L27.1777 34.352H30.7227L28.7031 45.975H25.4053L25.6846 42.9672ZM26.3506 40.7758L27.2637 40.7543C27.1921 41.4132 27.0488 42.0684 26.834 42.7201C26.6191 43.3718 26.3219 43.9626 25.9424 44.4926C25.5628 45.0225 25.0902 45.4451 24.5244 45.7602C23.9658 46.0681 23.3034 46.2149 22.5371 46.2006C21.8997 46.1863 21.359 46.0645 20.915 45.8354C20.4782 45.6062 20.1273 45.2947 19.8623 44.9008C19.5973 44.4997 19.4183 44.0414 19.3252 43.5258C19.2321 43.0102 19.2142 42.4587 19.2715 41.8715L20.5283 34.352H24.0625L22.7842 41.9145C22.7627 42.1221 22.7627 42.3155 22.7842 42.4945C22.8128 42.6736 22.8665 42.8311 22.9453 42.9672C23.0312 43.0961 23.1494 43.1999 23.2998 43.2787C23.4502 43.3575 23.6436 43.4005 23.8799 43.4076C24.417 43.4291 24.8538 43.3181 25.1904 43.0746C25.527 42.824 25.7848 42.4945 25.9639 42.0863C26.1501 41.6781 26.279 41.2413 26.3506 40.7758ZM37.1895 42.6449C37.2467 42.3441 37.1572 42.115 36.9209 41.9574C36.6917 41.7927 36.416 41.671 36.0938 41.5922C35.7786 41.5063 35.5244 41.4382 35.3311 41.3881C34.8942 41.2735 34.4609 41.1267 34.0312 40.9477C33.6016 40.7615 33.2113 40.5323 32.8604 40.2602C32.5166 39.9809 32.2409 39.6479 32.0332 39.2611C31.8327 38.8673 31.7432 38.4089 31.7646 37.8861C31.7861 37.2416 31.9473 36.683 32.248 36.2104C32.556 35.7377 32.9535 35.3474 33.4404 35.0395C33.9274 34.7243 34.4574 34.4916 35.0303 34.3412C35.6104 34.1908 36.1868 34.1228 36.7598 34.1371C37.5475 34.1443 38.2887 34.2839 38.9834 34.5561C39.6852 34.8282 40.2546 35.2436 40.6914 35.8021C41.1354 36.3607 41.361 37.0697 41.3682 37.9291L37.8555 37.9184C37.8626 37.6391 37.8268 37.3956 37.748 37.1879C37.6764 36.9802 37.5511 36.8227 37.3721 36.7152C37.193 36.6007 36.9495 36.5434 36.6416 36.5434C36.4124 36.5434 36.1868 36.5899 35.9648 36.683C35.7428 36.7761 35.5495 36.9086 35.3848 37.0805C35.2272 37.2523 35.127 37.46 35.084 37.7035C35.041 37.9112 35.0697 38.0867 35.1699 38.2299C35.2702 38.366 35.4062 38.477 35.5781 38.5629C35.75 38.6488 35.929 38.7204 36.1152 38.7777C36.3086 38.8279 36.4805 38.8673 36.6309 38.8959C37.2826 39.0535 37.9128 39.2647 38.5215 39.5297C39.1374 39.7875 39.6387 40.1563 40.0254 40.6361C40.4193 41.1088 40.6055 41.739 40.584 42.5268C40.5625 43.1928 40.3835 43.7621 40.0469 44.2348C39.7103 44.7003 39.277 45.0798 38.7471 45.3734C38.2243 45.6599 37.6585 45.8676 37.0498 45.9965C36.4482 46.1326 35.8646 46.197 35.2988 46.1898C34.5111 46.1755 33.7663 46.018 33.0645 45.7172C32.3626 45.4092 31.7897 44.9652 31.3457 44.3852C30.9089 43.7979 30.6797 43.0782 30.6582 42.226L33.9238 42.2367C33.931 42.5733 33.9919 42.8562 34.1064 43.0854C34.2282 43.3074 34.4036 43.4792 34.6328 43.601C34.862 43.7156 35.1449 43.7729 35.4814 43.7729C35.7321 43.7729 35.9756 43.737 36.2119 43.6654C36.4554 43.5867 36.6631 43.4649 36.835 43.3002C37.014 43.1283 37.1322 42.9099 37.1895 42.6449ZM47.9102 29.475L45.042 45.975H41.5078L44.376 29.475H47.9102ZM45.7188 39.766L44.9453 39.7982C45.0098 39.1537 45.1494 38.4949 45.3643 37.8217C45.5863 37.1485 45.887 36.529 46.2666 35.9633C46.6533 35.3975 47.1296 34.9464 47.6953 34.6098C48.2611 34.266 48.9271 34.1049 49.6934 34.1264C50.3665 34.1407 50.9215 34.2768 51.3584 34.5346C51.8024 34.7924 52.1462 35.1397 52.3896 35.5766C52.6403 36.0063 52.805 36.4968 52.8838 37.0482C52.9626 37.5925 52.9697 38.1618 52.9053 38.7563L51.7021 45.975H48.1465L49.3711 38.724C49.4069 38.3803 49.3997 38.0759 49.3496 37.8109C49.2995 37.5388 49.1777 37.324 48.9844 37.1664C48.7982 37.0017 48.5153 36.9158 48.1357 36.9086C47.7061 36.9014 47.348 36.9766 47.0615 37.1342C46.7751 37.2917 46.5423 37.5102 46.3633 37.7895C46.1842 38.0616 46.0446 38.3695 45.9443 38.7133C45.8512 39.057 45.776 39.4079 45.7188 39.766ZM93.9189 39.3256H89.8477L90.2666 36.8549L93.2529 36.8656C93.6898 36.8656 94.1087 36.8155 94.5098 36.7152C94.918 36.6078 95.2617 36.4216 95.541 36.1566C95.8275 35.8917 96.0101 35.5157 96.0889 35.0287C96.1533 34.5847 96.1175 34.2374 95.9814 33.9867C95.8454 33.7289 95.627 33.5463 95.3262 33.4389C95.0326 33.3243 94.6816 33.2634 94.2734 33.2563L92.3076 33.2455L90.0947 45.975H86.4209L89.1279 30.3344L94.3916 30.3451C95.0719 30.3523 95.7451 30.4275 96.4111 30.5707C97.0771 30.7139 97.6751 30.9467 98.2051 31.2689C98.735 31.584 99.1504 32.0137 99.4512 32.558C99.752 33.0951 99.8773 33.7683 99.8271 34.5775C99.777 35.4584 99.5299 36.1745 99.0859 36.726C98.6491 37.2702 98.0833 37.6749 97.3887 37.9398C96.694 38.1977 95.9421 38.3373 95.1328 38.3588L93.9189 39.3256ZM92.6729 45.975H87.7314L89.4932 43.0746L92.791 43.0854C93.1992 43.0782 93.5824 43.0102 93.9404 42.8813C94.3057 42.7523 94.61 42.5518 94.8535 42.2797C95.1042 42.0004 95.2653 41.6459 95.3369 41.2162C95.4014 40.851 95.3942 40.5323 95.3154 40.2602C95.2438 39.9809 95.0934 39.7624 94.8643 39.6049C94.6423 39.4473 94.3415 39.3578 93.9619 39.3363L90.6855 39.3256L91.1367 36.8549L94.7031 36.8656L95.3477 37.8432C96.071 37.8503 96.7119 37.9792 97.2705 38.2299C97.8291 38.4805 98.2588 38.8601 98.5596 39.3686C98.8675 39.8699 98.9964 40.5001 98.9463 41.2592C98.8747 42.4265 98.5381 43.3575 97.9365 44.0521C97.335 44.7396 96.5687 45.2338 95.6377 45.5346C94.7067 45.8354 93.7184 45.9822 92.6729 45.975ZM100.601 40.3461L100.622 40.1205C100.715 39.2826 100.919 38.4984 101.234 37.768C101.549 37.0375 101.968 36.3965 102.491 35.8451C103.021 35.2937 103.644 34.8676 104.36 34.5668C105.076 34.2589 105.879 34.1156 106.767 34.1371C107.619 34.1514 108.356 34.3161 108.979 34.6313C109.603 34.9464 110.115 35.376 110.516 35.9203C110.917 36.4574 111.2 37.0805 111.364 37.7895C111.536 38.4913 111.586 39.2396 111.515 40.0346L111.493 40.2709C111.4 41.1016 111.192 41.8786 110.87 42.602C110.548 43.3253 110.122 43.959 109.592 44.5033C109.069 45.0476 108.45 45.4701 107.733 45.7709C107.017 46.0717 106.219 46.2113 105.338 46.1898C104.5 46.1755 103.766 46.0144 103.136 45.7064C102.513 45.3913 102.001 44.9688 101.6 44.4389C101.199 43.9018 100.912 43.2859 100.74 42.5912C100.576 41.8894 100.529 41.141 100.601 40.3461ZM104.156 40.1205L104.135 40.3461C104.113 40.6397 104.099 40.962 104.092 41.3129C104.092 41.6566 104.131 41.9896 104.21 42.3119C104.289 42.627 104.432 42.8884 104.64 43.0961C104.854 43.2966 105.162 43.404 105.563 43.4184C105.993 43.4327 106.351 43.3432 106.638 43.1498C106.931 42.9564 107.168 42.6986 107.347 42.3764C107.526 42.0541 107.662 41.7068 107.755 41.3344C107.855 40.962 107.923 40.6039 107.959 40.2602L107.98 40.0346C108.002 39.7481 108.013 39.4294 108.013 39.0785C108.02 38.7204 107.984 38.3803 107.905 38.058C107.826 37.7357 107.68 37.4708 107.465 37.2631C107.25 37.0482 106.942 36.9337 106.541 36.9193C106.111 36.905 105.75 36.9981 105.456 37.1986C105.17 37.3992 104.937 37.6641 104.758 37.9936C104.579 38.3158 104.443 38.6667 104.35 39.0463C104.257 39.4187 104.192 39.7768 104.156 40.1205ZM112.589 40.3461L112.61 40.1205C112.703 39.2826 112.908 38.4984 113.223 37.768C113.538 37.0375 113.957 36.3965 114.479 35.8451C115.009 35.2937 115.632 34.8676 116.349 34.5668C117.065 34.2589 117.867 34.1156 118.755 34.1371C119.607 34.1514 120.345 34.3161 120.968 34.6313C121.591 34.9464 122.103 35.376 122.504 35.9203C122.905 36.4574 123.188 37.0805 123.353 37.7895C123.524 38.4913 123.575 39.2396 123.503 40.0346L123.481 40.2709C123.388 41.1016 123.181 41.8786 122.858 42.602C122.536 43.3253 122.11 43.959 121.58 44.5033C121.057 45.0476 120.438 45.4701 119.722 45.7709C119.006 46.0717 118.207 46.2113 117.326 46.1898C116.488 46.1755 115.754 46.0144 115.124 45.7064C114.501 45.3913 113.989 44.9688 113.588 44.4389C113.187 43.9018 112.9 43.2859 112.729 42.5912C112.564 41.8894 112.517 41.141 112.589 40.3461ZM116.145 40.1205L116.123 40.3461C116.102 40.6397 116.087 40.962 116.08 41.3129C116.08 41.6566 116.119 41.9896 116.198 42.3119C116.277 42.627 116.42 42.8884 116.628 43.0961C116.843 43.2966 117.151 43.404 117.552 43.4184C117.981 43.4327 118.34 43.3432 118.626 43.1498C118.92 42.9564 119.156 42.6986 119.335 42.3764C119.514 42.0541 119.65 41.7068 119.743 41.3344C119.843 40.962 119.911 40.6039 119.947 40.2602L119.969 40.0346C119.99 39.7481 120.001 39.4294 120.001 39.0785C120.008 38.7204 119.972 38.3803 119.894 38.058C119.815 37.7357 119.668 37.4708 119.453 37.2631C119.238 37.0482 118.93 36.9337 118.529 36.9193C118.1 36.905 117.738 36.9981 117.444 37.1986C117.158 37.3992 116.925 37.6641 116.746 37.9936C116.567 38.3158 116.431 38.6667 116.338 39.0463C116.245 39.4187 116.18 39.7768 116.145 40.1205ZM129.121 37.0053L127.563 45.975H124.029L126.049 34.352H129.347L129.121 37.0053ZM128.24 39.766L127.478 39.7982C127.549 39.1036 127.696 38.4161 127.918 37.7357C128.147 37.0554 128.462 36.4395 128.863 35.8881C129.264 35.3367 129.762 34.8998 130.356 34.5775C130.951 34.2553 131.646 34.1049 132.44 34.1264C133.028 34.1407 133.515 34.266 133.901 34.5023C134.288 34.7315 134.589 35.0395 134.804 35.4262C135.026 35.8057 135.169 36.239 135.233 36.726C135.305 37.2058 135.316 37.7035 135.266 38.2191L133.977 45.975H130.442L131.656 38.6703C131.692 38.3695 131.699 38.0867 131.678 37.8217C131.656 37.5567 131.57 37.3419 131.42 37.1771C131.27 37.0053 131.015 36.9158 130.657 36.9086C130.271 36.8943 129.938 36.9766 129.658 37.1557C129.379 37.3275 129.143 37.5567 128.949 37.8432C128.763 38.1296 128.609 38.4411 128.487 38.7777C128.373 39.1143 128.29 39.4438 128.24 39.766ZM134.675 39.766L133.74 39.7982C133.812 39.1036 133.955 38.4197 134.17 37.7465C134.392 37.0661 134.696 36.4503 135.083 35.8988C135.477 35.3474 135.967 34.9105 136.555 34.5883C137.142 34.266 137.837 34.112 138.639 34.1264C139.283 34.1479 139.813 34.2875 140.229 34.5453C140.644 34.8031 140.959 35.1469 141.174 35.5766C141.396 36.0063 141.539 36.4861 141.604 37.016C141.668 37.546 141.672 38.0938 141.614 38.6596L140.39 45.975H136.845L138.069 38.6488C138.105 38.3552 138.112 38.0795 138.091 37.8217C138.069 37.5567 137.983 37.3419 137.833 37.1771C137.69 37.0053 137.443 36.9158 137.092 36.9086C136.691 36.8943 136.347 36.973 136.061 37.1449C135.781 37.3168 135.549 37.546 135.362 37.8324C135.176 38.1117 135.029 38.4232 134.922 38.767C134.814 39.1036 134.732 39.4366 134.675 39.766Z" fill="#F0E6C8"/>
<g clip-path="url(#clip0_15_31)">
<path fill-rule="evenodd" clip-rule="evenodd" d="M65.8714 0.159267C64.7299 0.275482 63.7098 0.414077 63.464 0.486345C63.3293 0.525898 63.0539 0.582133 62.8519 0.611187C62.65 0.640322 62.3745 0.696802 62.2399 0.736761C62.1052 0.77672 61.7197 0.886912 61.383 0.981724C59.5788 1.48955 57.1299 2.59604 55.6706 3.56262C53.5772 4.94931 51.1645 7.4791 49.7298 9.79192C49.1829 10.6735 47.9991 12.956 47.6329 13.8351C47.2956 14.6448 46.7248 16.4136 46.4162 17.6055C45.942 19.4374 45.8369 20.2166 45.8382 21.892C45.8394 23.372 45.8438 23.4101 46.0975 24.1301C46.4247 25.0589 46.7345 25.6204 47.2871 26.2867C48.4843 27.73 50.2293 28.7144 52.8144 29.4048C55.1974 30.0411 57.2086 30.3521 59.8147 30.4871L60.8986 30.5432L60.8756 29.5353L60.8526 28.5273L60.0773 28.4301C58.2068 28.1955 56.4578 27.4968 54.5128 26.2071C53.5975 25.6002 52.2932 24.582 52.3537 24.5216C52.3745 24.5009 52.8447 24.7219 53.3986 25.0127C54.6153 25.6513 55.8447 26.1784 56.9152 26.5203C57.8343 26.8138 59.8776 27.2455 59.9598 27.1634C59.9905 27.1328 59.7595 26.8224 59.4465 26.4735C58.4397 25.3511 56.5381 22.7872 56.7124 22.7872C56.8644 22.7872 57.8116 23.4777 58.869 24.3591C59.4663 24.857 60.2303 25.4629 60.567 25.7055C61.8846 26.6548 63.3511 27.1586 65.0316 27.239C68.0122 27.3817 70.0486 26.2535 72.3159 23.2037C72.6947 22.6941 73.0178 22.3164 73.0338 22.3644C73.0779 22.4964 72.5249 24.089 72.2321 24.673C71.607 25.9201 70.6505 27.0952 69.7738 27.6936C69.164 28.1097 68.3021 28.4785 67.4184 28.7013C66.6696 28.8901 66.4101 28.9158 65.3001 28.9107C64.3347 28.9063 63.853 28.8648 63.2658 28.7352C62.8425 28.6418 62.4899 28.5654 62.482 28.5654C62.4742 28.5654 62.4464 29.4352 62.4203 30.4983C62.3489 33.4065 62.139 34.8192 61.1298 39.1859C60.3925 42.3764 60.0989 43.3712 59.1364 45.9407C58.4772 47.7006 57.4166 49.6875 56.8572 50.2106C56.6794 50.3768 56.6186 50.3944 56.5034 50.313C56.1552 50.0671 55.5744 49.8069 55.0936 49.6815C54.0536 49.4104 52.526 49.6349 51.6472 50.1881C51.3263 50.3901 51.2856 50.3962 50.8531 50.3072C49.9424 50.1196 49.0221 50.247 48.0794 50.691C47.2486 51.0824 46.4412 51.9351 45.9647 52.9244C45.5016 53.8859 45.3619 54.4898 45.3589 55.5439C45.3561 56.5578 45.4202 56.9883 45.6013 57.1689C45.713 57.2803 48.1892 57.2936 68.8539 57.2936H91.9816L92.1222 57.0796C92.3065 56.7992 92.3754 55.1511 92.2334 54.4225C92.0081 53.2666 91.3506 52.0794 90.5321 51.3505C89.5036 50.4347 88.0486 50.0273 86.7774 50.2991C86.396 50.3807 86.3507 50.3709 85.8554 50.0994C85.2127 49.7472 84.4645 49.5647 83.6615 49.5644C82.7644 49.564 82.1943 49.7423 81.3188 50.2968C81.1563 50.3997 81.1172 50.3913 80.9196 50.2104C80.1228 49.481 78.9542 47.0768 77.8947 43.9875C77.2159 42.0081 75.9725 36.9355 75.6306 34.7505C75.2127 32.0799 75.2773 29.626 75.8182 27.6228L75.9062 27.2966L76.6654 27.201C78.1464 27.0144 79.7838 26.403 81.975 25.2184C82.6407 24.8585 83.2009 24.5794 83.2199 24.5984C83.2782 24.6565 82.5913 25.2992 81.9725 25.7654C80.7244 26.7059 79.3735 27.4268 77.9491 27.9127C77.5227 28.0581 77.1294 28.2187 77.0751 28.2695C77.0153 28.3255 76.9544 28.7501 76.9207 29.3472L76.865 30.3325L77.0904 30.3754C77.3803 30.4307 79.2293 30.3749 80.6421 30.2682C83.3774 30.0617 86.0252 29.4226 87.7826 28.5448C89.1754 27.8491 90.5487 26.6292 91.2326 25.4802C92.5003 23.3506 92.4438 20.9735 91.0063 15.9456C90.6421 14.6722 89.9139 12.7573 89.7384 12.612C89.6429 12.533 89.5405 12.5462 89.2311 12.6774C88.5185 12.9797 87.9898 13.0445 87.382 12.9038C87.0843 12.835 86.7035 12.7088 86.5359 12.6236C86.0769 12.3901 85.434 11.6633 85.2116 11.1266C85.0638 10.7697 84.9861 10.6688 84.8899 10.7087C84.2147 10.9893 83.1031 10.9538 82.421 10.6298C81.8538 10.3605 81.2781 9.74757 81.0984 9.22199C80.9235 8.70993 80.9346 7.94054 81.1253 7.3641L81.2821 6.89021L80.7712 6.39524C80.1972 5.83915 79.9893 5.383 79.9893 4.67977C79.9893 4.16697 80.1756 3.5142 80.405 3.22342C80.499 3.10403 80.5574 2.95787 80.5346 2.89846C80.4851 2.76987 78.84 2.08487 77.5819 1.66917C75.7443 1.06189 73.459 0.578634 71.0126 0.28004C69.8503 0.138189 66.7855 0.0662466 65.8714 0.159267ZM73.9504 5.77819C73.9504 5.82295 73.9871 5.85958 74.032 5.85958C74.0769 5.85958 74.1136 5.82295 74.1136 5.77819C74.1136 5.73343 74.0769 5.69681 74.032 5.69681C73.9871 5.69681 73.9504 5.73343 73.9504 5.77819ZM77.8267 7.97553C77.7989 8.02029 77.8152 8.05692 77.8627 8.05692C77.9102 8.05692 77.9491 8.02029 77.9491 7.97553C77.9491 7.93077 77.9329 7.89415 77.9131 7.89415C77.8933 7.89415 77.8544 7.93077 77.8267 7.97553ZM74.7665 11.475C74.7665 11.5198 74.8032 11.5564 74.8481 11.5564C74.8929 11.5564 74.9297 11.5198 74.9297 11.475C74.9297 11.4302 74.8929 11.3936 74.8481 11.3936C74.8032 11.3936 74.7665 11.4302 74.7665 11.475ZM67.2587 11.8005C67.2587 11.8453 67.2954 11.8819 67.3403 11.8819C67.3852 11.8819 67.4219 11.8453 67.4219 11.8005C67.4219 11.7558 67.3852 11.7191 67.3403 11.7191C67.2954 11.7191 67.2587 11.7558 67.2587 11.8005ZM57.0579 12.0495C57.0579 12.0968 57.0946 12.113 57.1395 12.0854C57.1844 12.0577 57.2211 12.019 57.2211 11.9992C57.2211 11.9794 57.1844 11.9633 57.1395 11.9633C57.0946 11.9633 57.0579 12.0021 57.0579 12.0495ZM83.9472 12.6957C83.9194 12.7405 83.9356 12.7771 83.9831 12.7771C84.0306 12.7771 84.0696 12.7405 84.0696 12.6957C84.0696 12.651 84.0534 12.6144 84.0336 12.6144C84.0137 12.6144 83.9749 12.651 83.9472 12.6957ZM78.1939 15.0559C78.1939 15.1006 78.2306 15.1372 78.2755 15.1372C78.3204 15.1372 78.3571 15.1006 78.3571 15.0559C78.3571 15.0111 78.3204 14.9745 78.2755 14.9745C78.2306 14.9745 78.1939 15.0111 78.1939 15.0559ZM70.8494 16.0324C70.8494 16.0772 70.8883 16.1138 70.9358 16.1138C70.9833 16.1138 70.9995 16.0772 70.9718 16.0324C70.944 15.9877 70.9052 15.9511 70.8853 15.9511C70.8655 15.9511 70.8494 15.9877 70.8494 16.0324ZM48.6117 17.3346C48.5839 17.3793 48.6002 17.416 48.6476 17.416C48.6951 17.416 48.7341 17.3793 48.7341 17.3346C48.7341 17.2898 48.7179 17.2532 48.6981 17.2532C48.6782 17.2532 48.6394 17.2898 48.6117 17.3346ZM55.0994 17.4973C55.0994 17.5421 55.1383 17.5787 55.1858 17.5787C55.2333 17.5787 55.2495 17.5421 55.2218 17.4973C55.194 17.4526 55.1552 17.416 55.1353 17.416C55.1155 17.416 55.0994 17.4526 55.0994 17.4973ZM66.2386 17.8229C66.2663 17.8676 66.3052 17.9043 66.325 17.9043C66.3449 17.9043 66.361 17.8676 66.361 17.8229C66.361 17.7781 66.3221 17.7415 66.2746 17.7415C66.2271 17.7415 66.2109 17.7781 66.2386 17.8229ZM83.0903 18.316C83.0903 18.3633 83.127 18.3795 83.1719 18.3519C83.2168 18.3242 83.2535 18.2855 83.2535 18.2657C83.2535 18.2459 83.2168 18.2298 83.1719 18.2298C83.127 18.2298 83.0903 18.2686 83.0903 18.316ZM64.0352 19.0436C64.063 19.0884 64.1018 19.125 64.1217 19.125C64.1415 19.125 64.1576 19.0884 64.1576 19.0436C64.1576 18.9989 64.1187 18.9622 64.0712 18.9622C64.0237 18.9622 64.0075 18.9989 64.0352 19.0436ZM60.5262 19.4505C60.4984 19.4953 60.5147 19.5319 60.5622 19.5319C60.6096 19.5319 60.6486 19.4953 60.6486 19.4505C60.6486 19.4058 60.6324 19.3691 60.6126 19.3691C60.5928 19.3691 60.5539 19.4058 60.5262 19.4505ZM67.0547 20.183C67.0824 20.2277 67.1213 20.2644 67.1411 20.2644C67.1609 20.2644 67.1771 20.2277 67.1771 20.183C67.1771 20.1382 67.1381 20.1016 67.0907 20.1016C67.0432 20.1016 67.0269 20.1382 67.0547 20.183ZM79.622 21.892C79.5943 21.9368 79.631 21.9734 79.7036 21.9734C79.7763 21.9734 79.813 21.9368 79.7852 21.892C79.7575 21.8473 79.7208 21.8106 79.7036 21.8106C79.6865 21.8106 79.6498 21.8473 79.622 21.892ZM61.2198 23.2755C61.2198 23.3651 61.2339 23.4383 61.2511 23.4383C61.2683 23.4383 61.3016 23.3651 61.3251 23.2755C61.3485 23.186 61.3345 23.1128 61.2938 23.1128C61.2531 23.1128 61.2198 23.186 61.2198 23.2755ZM65.2185 23.1989C65.2185 23.2463 65.2552 23.2625 65.3001 23.2348C65.345 23.2072 65.3817 23.1684 65.3817 23.1487C65.3817 23.1289 65.345 23.1128 65.3001 23.1128C65.2552 23.1128 65.2185 23.1516 65.2185 23.1989ZM75.1745 24.1707C75.1745 24.2155 75.2112 24.2521 75.2561 24.2521C75.301 24.2521 75.3377 24.2155 75.3377 24.1707C75.3377 24.126 75.301 24.0894 75.2561 24.0894C75.2112 24.0894 75.1745 24.126 75.1745 24.1707ZM67.8299 24.9846C67.8299 25.0293 67.8666 25.066 67.9115 25.066C67.9564 25.066 67.9931 25.0293 67.9931 24.9846C67.9931 24.9398 67.9564 24.9032 67.9115 24.9032C67.8666 24.9032 67.8299 24.9398 67.8299 24.9846ZM48.6525 25.6356C48.6525 25.6804 48.7075 25.717 48.7749 25.717C48.8422 25.717 48.8973 25.6804 48.8973 25.6356C48.8973 25.5909 48.8422 25.5543 48.7749 25.5543C48.7075 25.5543 48.6525 25.5909 48.6525 25.6356ZM82.1926 27.1819C82.1926 27.2267 82.2293 27.2633 82.2742 27.2633C82.3191 27.2633 82.3558 27.2267 82.3558 27.1819C82.3558 27.1372 82.3191 27.1005 82.2742 27.1005C82.2293 27.1005 82.1926 27.1372 82.1926 27.1819ZM64.8105 36.4644C64.8105 36.5117 64.8472 36.5279 64.8921 36.5003C64.937 36.4726 64.9737 36.4339 64.9737 36.4141C64.9737 36.3943 64.937 36.3782 64.8921 36.3782C64.8472 36.3782 64.8105 36.417 64.8105 36.4644ZM71.9918 37.6803C71.9918 37.7251 72.0308 37.7617 72.0783 37.7617C72.1258 37.7617 72.142 37.7251 72.1143 37.6803C72.0865 37.6356 72.0477 37.5989 72.0278 37.5989C72.008 37.5989 71.9918 37.6356 71.9918 37.6803ZM73.7056 41.4239C73.7056 41.4687 73.7423 41.5053 73.7872 41.5053C73.8321 41.5053 73.8688 41.4687 73.8688 41.4239C73.8688 41.3792 73.8321 41.3426 73.7872 41.3426C73.7423 41.3426 73.7056 41.3792 73.7056 41.4239ZM61.7911 42.075C61.7911 42.1198 61.8278 42.1564 61.8727 42.1564C61.9176 42.1564 61.9543 42.1198 61.9543 42.075C61.9543 42.0302 61.9176 41.9936 61.8727 41.9936C61.8278 41.9936 61.7911 42.0302 61.7911 42.075ZM62.1175 43.5399C62.1175 43.5847 62.1542 43.6213 62.1991 43.6213C62.244 43.6213 62.2807 43.5847 62.2807 43.5399C62.2807 43.4951 62.244 43.4585 62.1991 43.4585C62.1542 43.4585 62.1175 43.4951 62.1175 43.5399ZM72.1143 43.8654C72.142 43.9102 72.1808 43.9468 72.2007 43.9468C72.2205 43.9468 72.2367 43.9102 72.2367 43.8654C72.2367 43.8207 72.1977 43.784 72.1502 43.784C72.1027 43.784 72.0865 43.8207 72.1143 43.8654ZM70.1965 44.0282C70.1965 44.073 70.2332 44.1096 70.2781 44.1096C70.323 44.1096 70.3597 44.073 70.3597 44.0282C70.3597 43.9834 70.323 43.9468 70.2781 43.9468C70.2332 43.9468 70.1965 43.9834 70.1965 44.0282ZM65.6266 44.469C65.6266 44.5399 65.6847 44.5979 65.7557 44.5979C65.8999 44.5979 65.8748 44.4227 65.7235 44.3724C65.6701 44.3546 65.6266 44.3982 65.6266 44.469ZM65.3817 49.6484C65.3817 49.6958 65.4185 49.712 65.4633 49.6843C65.5082 49.6566 65.545 49.6179 65.545 49.5981C65.545 49.5783 65.5082 49.5622 65.4633 49.5622C65.4185 49.5622 65.3817 49.6011 65.3817 49.6484ZM62.6071 50.3761C62.6071 50.4208 62.6438 50.4574 62.6887 50.4574C62.7336 50.4574 62.7703 50.4208 62.7703 50.3761C62.7703 50.3313 62.7336 50.2947 62.6887 50.2947C62.6438 50.2947 62.6071 50.3313 62.6071 50.3761ZM79.3772 51.9223C79.405 51.9671 79.4438 52.0037 79.4636 52.0037C79.4835 52.0037 79.4996 51.9671 79.4996 51.9223C79.4996 51.8776 79.4607 51.841 79.4132 51.841C79.3657 51.841 79.3495 51.8776 79.3772 51.9223ZM77.5411 53.7145C77.5411 53.8184 77.9311 54.002 78.0019 53.9314C78.0305 53.9029 78.0075 53.8236 77.9507 53.7554C77.8347 53.616 77.5411 53.5867 77.5411 53.7145ZM47.6324 54.2824C47.6601 54.3272 47.699 54.3638 47.7188 54.3638C47.7386 54.3638 47.7548 54.3272 47.7548 54.2824C47.7548 54.2377 47.7159 54.2011 47.6684 54.2011C47.6209 54.2011 47.6046 54.2377 47.6324 54.2824ZM86.1505 55.0963C86.1783 55.141 86.2171 55.1777 86.2369 55.1777C86.2568 55.1777 86.2729 55.141 86.2729 55.0963C86.2729 55.0515 86.234 55.0149 86.1865 55.0149C86.139 55.0149 86.1228 55.0515 86.1505 55.0963ZM58.4452 55.5846C58.4452 55.6293 58.4819 55.666 58.5268 55.666C58.5717 55.666 58.6084 55.6293 58.6084 55.5846C58.6084 55.5398 58.5717 55.5032 58.5268 55.5032C58.4819 55.5032 58.4452 55.5398 58.4452 55.5846ZM70.404 55.6603C70.3782 55.702 70.3944 55.7591 70.44 55.7872C70.4856 55.8153 70.5229 55.7812 70.5229 55.7114C70.5229 55.5685 70.474 55.5475 70.404 55.6603ZM89.782 56.475C89.782 56.5171 89.8187 56.5742 89.8636 56.6019C89.9085 56.6295 89.9452 56.595 89.9452 56.5253C89.9452 56.4555 89.9085 56.3984 89.8636 56.3984C89.8187 56.3984 89.782 56.4328 89.782 56.475Z" fill="#F0E6C8"/>
</g>
<defs>
<clipPath id="clip0_15_31">
<rect width="47.25" height="57.375" fill="white" transform="translate(45.225)"/>
</clipPath>
</defs>
</svg>
