<svg width="1440" height="624" viewBox="0 0 1440 624" fill="none" xmlns="http://www.w3.org/2000/svg">
<path d="M85.5469 0.887695C88.4609 -0.822282 90.1714 -0.157143 92.8174 3.71484C95.0723 7.01476 95.1607 7.70609 94.4277 16.208C92.8927 34.0129 92.5021 32.6778 100.5 36.9258C104.349 38.9702 107.823 40.6578 108.223 40.6758C108.62 40.6938 109.07 34.332 109.223 26.54C109.407 17.1413 109.879 12.2463 110.627 11.998C111.398 11.742 111.961 15.355 112.405 23.416C113.647 45.9136 112.935 44.0659 122.81 50.4355C132.407 56.6265 131.088 56.795 136.368 48.708C138.065 46.1092 139.261 45.2786 141.015 45.4805C142.314 45.6295 143.537 45.9124 143.733 46.1084C143.928 46.3085 142.864 49.5235 141.369 53.2578L138.65 60.0518L142.037 62.8799C146.256 66.4019 146.992 66.414 147.029 62.958C147.077 58.521 155.162 50.708 159.707 50.708C160.951 50.708 163.438 52.021 165.234 53.625L168.5 56.542L169.046 72.875C169.532 87.427 169.832 89.59 171.792 92.708C174.707 97.344 174.606 97.6807 170.5 97.0137L167 96.4463V120.644C167 144.689 167.015 144.861 169.417 148.025C170.747 149.776 172.89 153.233 174.18 155.708C175.892 158.992 177.424 160.499 179.848 161.286C181.674 161.879 183.574 163.004 184.069 163.786C185.465 165.991 185.16 173.107 183.577 175.267C182.322 176.978 182.39 177.592 184.147 180.44C187.187 185.368 184.158 187.866 180.083 183.791C179.029 182.737 177.904 182.137 177.583 182.458C177.262 182.779 177 187.832 177 193.688C177 204.21 177.035 204.367 180 207.208L183 210.082V237.52L188.093 238.221C190.983 238.618 193.595 238.513 194.13 237.978C195.303 236.803 195.571 223.402 194.513 218.814C193.855 215.959 194.08 215.156 195.929 213.762C197.812 212.341 198.266 210.606 199.095 201.656C199.628 195.909 200.846 184.462 201.802 176.218C203.261 163.64 203.819 161.174 205.27 160.894C207.304 160.503 207.458 163.207 206.028 174.208C202.804 199.008 201.882 218.989 203.868 220.976C204.564 221.672 205 226.071 205 232.385C205 242.217 205.107 242.732 207.477 244.285C208.839 245.178 211.427 245.976 213.227 246.058L216.5 246.208L217 239.717C217.394 234.606 217.867 233.157 219.228 232.898C220.803 232.599 220.901 233.437 220.339 242.389C219.999 247.789 219.586 252.369 219.421 252.565C219.252 252.761 216.503 253 213.31 253.095L207.5 253.269L207.237 256.738C207.092 258.648 207.317 268.083 207.737 277.708L208.5 295.208L214.108 295.811C217.192 296.143 220.166 296.693 220.72 297.035C222.459 298.11 223.872 305.771 224.7 318.606C225.362 328.86 225.808 331.195 227.278 332.106C230.178 333.902 230.968 331.19 230.985 319.385C230.998 309.778 231.189 308.598 232.686 308.886C233.884 309.117 235.326 312.39 237.672 320.209C239.487 326.259 240.979 331.996 240.986 332.958C240.994 333.92 241.629 334.708 242.397 334.708C243.546 334.707 243.748 331.822 243.538 318.458C243.314 304.226 243.021 301.696 241.179 298.085C240.022 295.817 238.159 293.721 237.038 293.428C234.152 292.674 234.376 288.896 237.374 287.756C239.583 286.916 239.779 286.222 240.183 277.772C240.421 272.779 241.094 268.214 241.678 267.63C242.426 266.882 245.653 267.464 252.62 269.603C261.602 272.362 271.105 274.64 279.75 276.107C282.966 276.652 283 276.616 283 272.669C283 270.476 282.525 267.9 281.945 266.944C280.281 264.207 283.096 253.306 285.579 252.874C288.531 252.36 290 249.75 290 245.017V240.708H293.981C297.362 240.708 298.054 240.342 298.571 238.281C299.217 235.708 299.864 235.512 312.361 234.108C319.531 233.303 319.964 233.803 319.985 242.918L320 249.628L323.75 250.589C325.813 251.117 329.3 251.923 331.5 252.379L335.5 253.208L335.163 288.708C334.812 325.639 335.616 336.101 338.614 333.613C339.328 333.021 340.362 332.814 340.912 333.154C342.328 334.029 344.124 330.764 349.052 318.357C351.421 312.39 353.876 307.311 354.508 307.067C355.139 306.824 356.907 307.102 358.436 307.684C360.464 308.455 360.946 309.075 360.213 309.975C357.548 313.248 340.011 347.512 340.004 349.458C339.997 351.656 342.527 350.813 348.26 346.708C352.52 343.657 354.785 342.708 357.801 342.708C362.575 342.708 363.972 341.241 365.137 335.003C366.711 326.58 370.489 326.999 371.5 335.708C371.929 339.401 372.714 341.768 373.628 342.119C374.424 342.424 375.222 342.119 375.401 341.441C375.58 340.763 376.25 338.019 376.89 335.344C377.53 332.669 379.841 327.983 382.027 324.931C384.212 321.88 385.999 318.979 386 318.481C386 317.985 387.912 315.358 390.25 312.644C395.417 306.644 396.796 306.508 410.049 310.69C421.612 314.339 426.319 314.441 434 311.208C444.206 306.912 444.769 307.395 447.641 322.92C448.586 328.029 449.954 332.918 450.68 333.787C451.406 334.655 452 336.313 452 337.472C452 338.63 452.439 340.732 452.975 342.143C453.749 344.178 453.646 344.708 452.475 344.708C450.301 344.708 450.681 348.493 453 349.94C455.948 351.781 455.432 353.044 452.012 352.36C448.052 351.568 447.857 352.541 448.213 371.195C448.483 385.298 448.618 386.201 450.5 386.497C451.6 386.67 453.4 387.172 454.5 387.612C457.074 388.644 465.979 391.763 468.25 392.428C469.771 392.874 470 392.201 470 387.293C470 384.186 469.325 380.028 468.5 378.054C466.995 374.451 466.481 369.709 467.596 369.708C470.494 369.708 479.266 373.303 482.131 375.665L485.701 378.607L485.217 388.657L484.733 398.708L487.616 398.729C489.202 398.742 491.558 399.566 492.85 400.56C495.003 402.216 495.57 402.246 499.6 400.919L504 399.471V394.245C504 391.371 504.296 384.186 504.657 378.279C505.265 368.34 505.483 367.475 507.576 366.679C508.821 366.206 510.24 365.101 510.732 364.223C511.781 362.349 515 363.189 515 365.336C515 366.114 516.237 367.236 517.75 367.83C519.263 368.423 522.425 369.764 524.777 370.808C530.165 373.202 532.154 373.193 536.155 370.76C539.956 368.449 540.901 368.777 540.249 372.184C539.894 374.042 539.138 374.708 537.383 374.708C534.971 374.708 533.943 376.618 536.25 376.814C540.672 377.19 541.681 377.135 543.25 376.427C544.878 375.693 545 376.797 545 392.278V408.918L548.75 408.365C557.884 407.018 557.106 406.647 558.924 413.219C561.214 421.498 561.923 422.508 563.767 420.109C564.9 418.637 565.345 418.518 565.74 419.583C566.924 422.774 570.002 424.745 572.765 424.083C576.411 423.208 576.511 423.061 575.231 420.456C573.564 417.064 572.77 413.709 573.635 413.708C574.058 413.708 575.874 415.132 577.67 416.873C580.102 419.23 581.069 419.677 581.456 418.623C581.742 417.845 582.094 411.358 582.238 404.208C582.489 391.75 582.59 391.195 584.656 390.901C586.178 390.685 588.205 392.083 591.543 395.651C596.406 400.85 598.379 401.769 599.333 399.282C599.634 398.498 600.447 393.311 601.141 387.756C602.029 380.637 602.914 377.191 604.138 376.083C605.093 375.219 606.263 374.752 606.738 375.046C607.216 375.342 607.027 380.871 606.317 387.394C604.576 403.396 604.552 403.888 605.396 406.459C605.804 407.697 607.005 409.175 608.068 409.744C611.021 411.325 610.44 412.826 607.333 411.644C604.322 410.5 603.041 411.631 603.015 415.458C603.004 417.058 603.587 417.708 605.031 417.708C608.124 417.708 608.525 420.448 606.148 425.341C604.966 427.772 604 430.424 604 431.235C604 433.545 607.414 432.961 610 430.208C611.459 428.655 613.448 427.708 615.251 427.708C617.903 427.708 618.135 427.988 617.938 430.958C617.82 432.746 618.059 434.996 618.469 435.958C619.304 437.919 621.633 438.309 622.208 436.584C622.457 435.838 624.059 436.173 626.965 437.577C629.375 438.741 631.599 439.442 631.908 439.134C632.216 438.824 632.638 435.115 632.846 430.891C633.101 425.714 633.677 422.947 634.612 422.408C635.375 421.968 636 420.956 636 420.158C636 419.361 636.45 418.708 637 418.708C637.55 418.708 638 419.354 638 420.143C638 421.328 639.615 421.478 647.25 421.006C652.337 420.691 657.816 419.767 659.428 418.953C663.841 416.722 665 419.004 665 429.931C665 436.898 665.32 438.893 666.513 439.351C667.345 439.671 668.695 439.376 669.513 438.697C670.631 437.769 671.34 437.746 672.373 438.603C673.129 439.23 674.501 439.453 675.424 439.099C676.463 438.7 678.001 439.3 679.466 440.676C682.384 443.418 684.895 442.78 687.203 438.711C688.513 436.403 689.613 435.708 691.955 435.708C694.459 435.708 695.633 436.583 698.521 440.604C700.456 443.296 703.538 446.644 705.372 448.042L708.705 450.585L716.415 448.014C724.812 445.214 729 445.729 729 449.564C729 451.971 731.307 453.922 733.676 453.519C734.937 453.304 735.5 453.825 735.5 455.208C735.5 458.056 732.235 458.349 691 459.202C654.373 459.96 627.788 458.851 621.547 456.305C619.034 455.279 617.103 455.463 609.069 457.492C599.988 459.785 599.317 459.823 594.032 458.342C590.989 457.488 584.019 456.513 578.543 456.174C568.012 455.521 566.307 454.983 561.467 450.782C556.489 446.462 544.356 438.709 542.573 438.708C541.661 438.708 538.789 436.72 536.191 434.29C529.127 427.682 517.579 421.422 513.933 422.223C512.332 422.574 510.785 423.248 510.492 423.721C510.2 424.193 512.783 426.597 516.231 429.064C519.679 431.53 523.823 434.934 525.438 436.628C527.222 438.499 529.378 439.708 530.932 439.708C533.896 439.708 546.15 447.656 545.302 449.029C544.238 450.749 534.321 448.741 526.677 445.257C522.492 443.35 515.663 438.995 511.501 435.579L503.933 429.367L500.071 433.138C497.144 435.997 495.701 436.748 494.105 436.241C488.781 434.551 493.385 439.258 504 446.357C506.475 448.012 510.274 450.584 512.443 452.073C515.386 454.094 517.43 454.726 520.504 454.567C524.742 454.348 529.114 456.313 540.678 463.638L545.856 466.918L549.821 463.732C554.481 459.986 560.237 458.388 564.5 459.655C566.15 460.145 569.582 460.827 572.126 461.17C575.446 461.617 577.564 462.637 579.626 464.782C581.207 466.425 583.85 468.538 585.5 469.476L588.5 471.182L579 472.069C562.676 473.594 558.843 473.36 552.342 470.442C549.094 468.984 542.477 466.869 537.638 465.74L528.84 463.689L526.285 465.698C524.88 466.804 522.844 467.708 521.76 467.708C518.992 467.708 503.736 463.082 496.124 459.936L489.747 457.301L487.327 460.114C485.996 461.662 485.074 463.441 485.278 464.068C485.889 465.94 494.445 469.558 505.813 472.75C511.689 474.4 518.876 476.64 521.786 477.729C528.511 480.244 531.3 480.317 530.66 477.958C528.849 471.278 528.894 470.708 531.231 470.721C534.337 470.738 559.164 479.444 560.814 481.093C561.919 482.199 561.854 482.71 560.435 484.13C558.56 486.005 555.647 485.794 544.5 482.975C539.566 481.728 534.148 481.57 514 482.088C489.812 482.71 484.982 482.402 470.386 479.311C465.548 478.286 458.349 477.855 447.886 477.965L432.5 478.127L419.308 471.917C412.055 468.503 405.932 465.71 405.698 465.708C404.992 465.708 397.736 472.781 398.13 473.085C398.333 473.241 401.599 474.187 405.386 475.186C415.939 477.972 423.089 481.976 427.581 487.616C430.833 491.7 432.447 492.807 437.066 494.122C444.877 496.348 446.87 496.181 448 493.208C448.837 491.007 449.541 490.708 453.892 490.708C456.61 490.708 460.926 491.604 463.482 492.7C467.812 494.556 468.339 494.584 471.196 493.106C475.043 491.117 481.151 491.887 486.105 494.986C493.768 499.779 504.999 509.403 505 511.178C505 512.513 515.16 513.695 526.901 513.725C530.53 513.735 536.875 514.627 541 515.708C545.125 516.789 548.612 517.681 548.75 517.691C548.888 517.7 549 516.869 549 515.843C549 514.817 549.933 512.792 551.073 511.343C553.558 508.184 556.387 508.007 567.662 510.307C571.973 511.186 577.3 512.244 579.5 512.659C581.7 513.073 586.425 515.044 590 517.039C593.575 519.035 598.066 521.372 599.98 522.233C603.199 523.681 603.557 523.668 604.73 522.062C605.429 521.108 606 519.951 606 519.492C606 519.034 607.136 518.227 608.524 517.699C612.092 516.343 620.378 518.313 624.029 521.386C627.393 524.217 627.57 525.092 625.555 528.954C624.212 531.528 624.26 531.73 626.311 532.164C631.548 533.274 656.518 534.707 670.393 534.694C678.702 534.686 703.423 535.215 725.329 535.869C756.536 536.8 769.836 536.792 786.761 535.831C807.713 534.641 813.695 533.688 809.75 532.168C806.987 531.104 807.522 526.84 810.565 525.683C814.351 524.244 824.097 524.51 827.216 526.137C829.323 527.236 831.454 527.357 836.716 526.676C840.447 526.192 848.45 525.309 854.5 524.712C860.55 524.116 874.275 522.731 885 521.636C895.725 520.54 910.866 519.249 918.647 518.766C931.708 517.956 936.999 516.829 937 514.859C937 514.431 927.212 514.013 915.25 513.93C898.904 513.817 890.146 513.267 880 511.713C872.575 510.576 861.888 509.367 856.25 509.027C850.612 508.686 846 508.094 846 507.712C846 505.386 854.729 501.708 860.249 501.708C862.061 501.708 863.71 500.456 866.133 497.239C868.981 493.459 870.04 492.765 873.002 492.739C876.114 492.711 876.754 493.181 878.754 496.958C879.993 499.295 881.004 501.771 881.003 502.458C881.001 503.328 882.949 503.708 887.42 503.708H893.84L893.278 494.3L892.717 484.893L896.819 482.8C903.009 479.642 910.617 479.966 918.159 483.708C921.484 485.358 925.482 486.708 927.042 486.708C928.914 486.708 931.449 488.068 934.5 490.708C937.042 492.908 940.106 494.69 941.311 494.668C943.647 494.626 953.343 486.384 952.292 485.333C951.948 484.989 950.779 484.708 949.694 484.708C948.608 484.708 947.205 484.003 946.575 483.142C945.945 482.28 943.421 481.332 940.965 481.035C938.509 480.737 934.824 479.754 932.776 478.851C929.071 477.217 927.865 475.713 930.25 475.702C934.874 475.682 939.902 472.998 945.259 467.691C951.216 461.788 956.196 458.708 959.782 458.708C965.358 458.708 987.383 448.121 991.975 443.235L994.4 440.653L991.846 438.099L989.292 435.546L984.396 438.045C979.297 440.648 971.121 442.899 969.776 442.07C967.845 440.876 969.112 437.722 971.75 437.159C979.397 435.528 989.335 431.131 995.451 426.672C999.196 423.942 1002.55 421.708 1002.91 421.708C1003.26 421.708 1004.59 422.433 1005.85 423.316L1008.15 424.924L1006 427.21C1003.22 430.169 1004.9 431.34 1009.86 429.897C1024.65 425.591 1030.47 424.794 1031.33 426.958C1031.65 427.739 1033.74 426.266 1036.92 423.032C1045.07 414.731 1043.66 413.674 1031.97 419.31C1022.14 424.049 1016.69 424.273 1011.47 420.148C1001.72 412.444 992.563 406.629 990.615 406.908C986.726 407.465 987.554 410.512 992.394 413.452C994.889 414.968 996.799 416.653 996.636 417.196C996.141 418.847 978.179 430.8 964.91 438.309C961.658 440.15 961.57 440.622 964 443.208C965.288 444.579 966.138 445.903 965.89 446.151C965.029 447.01 943.701 455.708 942.459 455.708C938.989 455.708 940.288 449.386 944 448.208C945.732 447.658 948.761 443.834 947.831 443.372C947.649 443.282 945.475 442.194 943 440.955C937.275 438.089 936.746 438.12 932.785 441.562C930.978 443.13 927.485 445.677 925.022 447.218C922.561 448.759 919.878 450.688 919.062 451.503C916.57 453.995 911.595 455.596 904.381 456.228C895.577 457 893 457.538 893 458.606C893.001 459.95 897.803 461.431 906.261 462.696C913.561 463.788 914.23 463.729 917.511 461.701C919.529 460.453 920.999 460.025 921 460.685C921 461.313 921.389 461.586 921.864 461.292C922.773 460.732 924.448 473.593 923.579 474.462C923.303 474.739 918.897 474.464 913.788 473.854C908.68 473.243 901.076 472.644 896.89 472.52L889.281 472.295L882.404 478.502L875.528 484.708H866.923C862.166 484.708 856.123 485.374 853.409 486.197C846.497 488.294 840.126 488.11 836.5 485.708C833.877 483.971 831.802 483.722 820 483.726C811.13 483.73 804.614 484.246 801 485.231C795.444 486.746 788.652 486.411 786.29 484.506C785.502 483.87 778.013 483.939 764.79 484.703C749.336 485.596 741.521 485.598 732 484.712C725.125 484.073 716.688 483.322 713.25 483.044C708.873 482.689 707 482.127 707 481.168C707 478.863 713.843 478.241 720.267 479.962L726.09 481.523L730.439 478.203C737.982 472.445 739.819 471.771 743.277 473.496C745.953 474.831 746.818 474.816 751.472 473.348C754.333 472.446 757.802 471.708 759.182 471.708C760.474 471.708 765.569 470.324 770.811 468.564L772.91 467.852C778.164 466.092 783.356 464.708 784.767 464.709C786.27 464.709 790.364 466.065 793.865 467.721C806.887 473.881 811.75 470.89 799 464.562L791.5 460.84L770.719 460.774C752.986 460.718 749.851 460.483 749.347 459.171C749.023 458.325 749.487 456.827 750.379 455.842C751.27 454.857 752 453.024 752 451.77C752 449.755 752.379 449.551 755.25 450.016C757.038 450.305 760.43 451.127 762.789 451.842C766.942 453.101 767.149 453.057 769.289 450.457C770.505 448.98 772.737 447.318 774.25 446.764C776.999 445.758 777 445.753 777 435.792C777 430.311 777.385 425.588 777.855 425.298C778.946 424.625 782.292 428.271 784.383 432.408C786.542 436.681 786.437 438.055 784 437.418C782.409 437.002 782 437.388 782 439.302C782 443.563 785.143 442.021 793.595 433.613L801.732 425.518L804.901 427.157C806.644 428.059 810.152 431.476 812.696 434.752C818.79 442.6 821 442.721 821 435.208C821 430.478 821.265 429.708 822.893 429.708C823.934 429.708 825.023 430.326 825.313 431.082C826.115 433.168 831.958 434.981 832.588 433.339C833.188 431.775 827.697 416.339 822.485 404.939C820.406 400.392 818.883 396.51 819.102 396.312C819.321 396.116 820.489 395.653 821.698 395.281C824.699 394.36 825.86 396.844 831.53 416.312C834.076 425.055 836.592 432.654 837.121 433.2C838.529 434.651 839.853 432.051 840.632 426.309C841.032 423.363 842.134 420.574 843.399 419.309L845.5 417.208L846 422.977C846.513 428.892 848.46 430.596 848.55 425.208C848.963 400.587 848.829 401.724 851.433 400.734C853.179 400.07 853.981 398.877 854.273 396.508C854.67 393.286 854.684 393.301 854.84 397.065C854.975 400.313 855.276 400.81 856.75 400.211C860.045 398.873 870.497 398.003 873.392 398.827C876.904 399.827 877.975 399.272 878.079 396.399C878.148 394.47 878.278 394.537 879.162 396.958C880.382 400.297 881.346 400.43 882.78 397.458C883.817 395.307 883.868 395.344 883.932 398.278C883.976 400.247 884.896 402.127 886.5 403.521C888.855 405.569 889 406.274 889 415.701C889 426.892 889.102 427.014 895.5 423.442C898.164 421.954 900.146 419.82 901.432 417.053C903.318 412.996 903.483 412.896 908.397 412.858C911.164 412.837 913.987 413.283 914.671 413.85C917.648 416.32 918 413.38 918.022 385.899C918.048 353.718 917.522 355.433 928.5 351.752C938.855 348.28 938.642 348.47 939.298 342.108C939.953 335.761 940.833 334.323 943.446 335.326C944.892 335.881 945.134 336.828 944.734 340.374C944.464 342.775 944.624 344.975 945.092 345.265C946.481 346.123 951.809 342.887 952.479 340.778C953.288 338.23 965.458 331.403 967.843 332.158C968.834 332.473 971.155 334.745 973 337.208C974.845 339.671 977.063 341.899 977.928 342.16C985.3 344.381 1000.36 348.098 1003.99 348.595C1009.69 349.373 1009.72 349.504 1009.9 373.708C1009.97 383.882 1010.43 392.834 1010.91 393.603C1011.51 394.543 1012.78 394.802 1014.81 394.396C1016.84 393.99 1018.22 394.27 1019.04 395.25C1019.7 396.052 1020.98 396.708 1021.88 396.708C1024 396.708 1030.96 386.35 1035.53 376.406C1037.5 372.115 1039.68 368.385 1040.38 368.115C1042.78 367.194 1046.69 369.541 1047.99 372.688C1049.16 375.513 1049.08 376.11 1047.17 378.522C1046.01 380 1043.65 383.586 1041.93 386.493L1038.81 391.778L1040.9 396.223C1042.36 399.33 1043.75 400.823 1045.5 401.188C1046.87 401.474 1049.13 401.942 1050.5 402.228C1055.36 403.237 1065 395.186 1065 390.121C1065 385.916 1060.18 367.437 1058.87 366.627C1058.31 366.28 1057.6 364.131 1057.29 361.852C1056.84 358.459 1057.03 357.708 1058.37 357.708C1059.45 357.708 1060 356.849 1060 355.154C1060 352.124 1056.49 339.41 1051.49 324.361C1047.81 313.271 1047.47 310.208 1049.91 310.208C1050.81 310.208 1052.15 313.34 1053.71 319.077C1055.04 323.954 1057.15 329.579 1058.41 331.577C1059.66 333.574 1061.72 338.358 1062.97 342.208C1064.23 346.058 1065.9 349.947 1066.69 350.85C1068.2 352.587 1071.57 352.294 1072.29 350.359C1073.5 347.151 1068.95 296.761 1066.48 285.958C1065.95 283.665 1064.16 283.037 1062.45 284.546C1060.66 286.125 1048.94 289.839 1046.74 289.523C1044.79 289.242 1044.51 288.511 1044.21 282.805C1043.98 278.361 1044.27 276.159 1045.16 275.608C1046.87 274.553 1047.97 276.437 1047.99 280.458C1048 284.376 1048.74 284.466 1058.05 281.692L1064.82 279.676L1065.46 270.942C1065.81 266.138 1066.19 261.313 1066.3 260.218C1066.41 259.124 1067.3 258.077 1068.27 257.891C1070.51 257.463 1072.5 262.099 1073.45 269.958C1074.1 275.355 1074.31 275.708 1076.82 275.704C1081.07 275.698 1085.71 272.31 1086.52 268.613C1087.38 264.701 1088.63 266.301 1089.15 271.993L1089.5 275.779L1082.59 278.202C1078.79 279.535 1075.37 280.982 1074.98 281.417C1074.6 281.852 1076.45 295.033 1079.09 310.708C1081.73 326.383 1083.92 339.576 1083.95 340.025C1083.98 340.475 1084.97 340.536 1086.15 340.16C1087.96 339.584 1088.18 339.77 1087.54 341.343C1086.02 345.045 1085.26 349.599 1085.74 352.128C1086.37 355.422 1089 355.542 1089 352.276C1089 350.73 1090.06 349.087 1091.92 347.764C1093.53 346.62 1096.04 343.552 1097.5 340.946C1099.97 336.521 1100.06 335.944 1098.83 332.219C1098.11 330.025 1096.7 327.41 1095.7 326.408C1092.94 323.643 1093.96 320.568 1098.5 318.001C1100.7 316.758 1102.78 315.733 1103.12 315.724C1103.47 315.715 1104.76 318.858 1106 322.708C1108.09 329.21 1109.94 331.229 1111.5 328.708C1112.59 326.949 1114.09 327.619 1117.33 331.304C1119.08 333.281 1122.19 335.765 1124.25 336.824C1127.68 338.586 1128 339.106 1128.01 342.978C1128.02 345.305 1128.47 347.883 1129 348.708C1130.11 350.428 1130.16 349.814 1130.37 330.864C1130.5 318.665 1130.53 318.493 1133.25 316.326L1136 314.133V286.486C1136 259.978 1135.47 254.235 1132.88 252.635C1132.33 252.296 1131.62 249.46 1131.3 246.331C1130.81 241.553 1131.03 240.287 1132.69 238.425C1133.78 237.206 1136.16 233.508 1137.98 230.208C1139.8 226.908 1143.22 221.997 1145.58 219.295C1147.95 216.592 1150.87 211.721 1152.09 208.469C1154.47 202.091 1156.13 200.575 1162.85 198.604C1165.25 197.902 1167.35 196.852 1167.52 196.269C1167.69 195.675 1168.11 178.439 1168.44 157.958C1168.99 124.293 1168.9 120.708 1167.46 120.708C1164.67 120.708 1166.03 115.396 1169 114.706C1171.29 114.174 1171.52 113.609 1171.8 107.93C1172.05 102.677 1171.86 101.825 1170.55 102.328C1169.45 102.748 1169 102.306 1169 100.815C1169 99.6564 1169.44 98.708 1169.99 98.708C1172.06 98.7073 1176.51 90.1578 1177 85.208C1177.48 80.419 1177.64 80.1945 1180.75 79.8945C1183.11 79.6665 1184 79.991 1184 81.0859C1184 83.0879 1185.79 84.106 1187.29 82.957C1187.96 82.449 1191.43 80.987 1195 79.708C1202.93 76.87 1204 76.0947 1204 73.1787C1204 70.9273 1212.5 62.708 1214.82 62.708C1215.4 62.7084 1215.83 64.0641 1215.78 65.7217C1215.73 67.3792 1215.95 68.9901 1216.26 69.3027C1216.97 70.0117 1220.85 68.0478 1223.51 65.6309C1224.62 64.6259 1227.19 63.1078 1229.23 62.2568C1231.26 61.4068 1233.41 59.8109 1234 58.71C1234.61 57.564 1236.09 56.7081 1237.46 56.708C1239.63 56.708 1239.92 57.254 1240.55 62.458C1240.99 66.059 1241.95 68.8771 1243.12 69.9971C1245.38 72.1471 1245.57 75.2753 1243.5 76.0703C1241.86 76.6995 1241.56 81.2131 1242.63 89.0498C1243.2 93.2058 1243.75 93.9794 1248.04 96.7314C1254.38 100.805 1258.29 101.853 1262.13 100.514L1265.2 99.4443L1264.5 89.7197C1263.9 81.3839 1264.03 79.9105 1265.38 79.3936C1267.07 78.7447 1267.34 79.5126 1270.59 93.7402C1272.22 100.915 1272.53 101.429 1277.08 104.564C1280.34 106.813 1282.75 107.753 1284.68 107.532L1287.5 107.208L1288 96.6064C1288.53 85.4395 1288.8 84.7072 1294.53 79.1514L1297.69 76.0947L1298.38 62.1514C1299.2 45.6844 1299.67 44.702 1308.95 39.958C1317.65 35.5151 1322.15 35.5873 1328.97 40.2793C1333.22 43.2053 1334.91 43.7966 1338.33 43.5586L1342.5 43.2686L1342.19 46.8477C1341.88 50.3477 1342.14 50.6284 1353.87 59.5674C1360.46 64.5933 1366.11 68.7048 1366.43 68.708C1366.74 68.708 1367 67.8981 1367 66.9082C1367 64.4782 1368.93 62.708 1371.58 62.708C1373.57 62.708 1373.83 63.38 1374.46 70.0947C1375.12 77.2057 1375.33 77.669 1379.99 82.5L1384.82 87.5176L1385.16 99.084C1385.5 110.616 1385.51 110.657 1388.64 113.429C1392.18 116.566 1394.98 124.79 1393.25 126.951C1392.59 127.772 1392.46 137.94 1392.87 156.208L1393.5 184.208L1400.5 187.926C1404.35 189.971 1407.8 191.659 1408.16 191.676C1409.13 191.722 1409.94 183.879 1410.52 168.708C1410.81 161.283 1411.28 154.46 1411.56 153.547C1411.85 152.633 1413.64 150.698 1415.54 149.246C1418.12 147.276 1419 145.85 1419 143.626C1419 141.964 1419.63 140.402 1420.43 140.096C1423.16 139.048 1424 133.406 1424 116.059C1424 99.375 1424.08 98.708 1426 98.708C1427.92 98.708 1428 99.375 1428 115.631C1428 132.224 1428.05 132.613 1430.5 135.526C1432.95 138.433 1433 138.854 1433 155.035C1433 170.695 1433.11 171.607 1435 172.208C1436.32 172.628 1437.02 173.75 1437.05 175.525C1437.08 177.004 1437.56 194.41 1438.1 214.208C1438.65 234.008 1439.31 260.527 1439.57 273.142C1439.83 285.751 1440.21 296.245 1440.43 296.47C1440.64 296.686 1442.64 294.408 1444.85 291.408C1447.88 287.31 1449.64 285.84 1451.94 285.503C1454.82 285.081 1455 285.245 1455 288.332C1455 290.134 1454.38 291.968 1453.62 292.408C1451.29 293.759 1447 300.851 1447 303.348C1447 304.645 1446.6 305.707 1446.11 305.708C1445.62 305.708 1444.96 306.36 1444.66 307.157C1443.41 310.405 1447.98 306.991 1452.25 301.482L1456.69 295.756L1457.32 284.482C1458.94 255.548 1460.26 240.104 1461.21 238.958C1461.78 238.27 1463 237.708 1463.92 237.708C1467.47 237.708 1467.93 239.613 1467.29 251.522C1466.61 264.356 1466.89 264.67 1472.17 256.907C1473.93 254.324 1475.71 251.976 1476.12 251.689C1476.53 251.404 1476.36 242.262 1475.73 231.373C1474.77 214.574 1474.81 211.444 1476 210.708C1478.16 209.372 1478.58 210.101 1479.81 217.413C1481.68 228.433 1485.89 264.723 1485.98 270.517C1485.99 271.237 1486.47 271.535 1487.05 271.178C1487.62 270.822 1488.02 269.783 1487.93 268.869C1487.57 265.187 1488.04 264.708 1492 264.708H1496V269.601C1496 272.917 1495.54 274.671 1494.57 275.042C1493.79 275.343 1493 276.854 1492.82 278.399C1492.62 280.157 1491.66 281.577 1490.25 282.195C1488.31 283.046 1488 283.942 1487.99 288.695C1487.97 301.878 1490.22 339.428 1491.16 341.708L1492.2 344.208L1495.65 340.234C1498.83 336.572 1499.53 336.248 1504.57 336.093C1510.98 335.895 1512.77 334.711 1513.19 330.392C1513.39 328.328 1514.11 327.109 1515.25 326.894C1516.48 326.66 1516.82 327.021 1516.4 328.121C1515.99 329.172 1516.61 329.988 1518.28 330.625C1520.73 331.557 1520.78 331.784 1521.49 346.889C1521.89 355.312 1522.67 362.758 1523.22 363.438C1523.76 364.113 1526.41 364.959 1529.11 365.316L1534 365.966V624H0V407.146L3.07227 405.987C5.64016 405.018 6.09126 404.366 5.82227 402.018C5.56724 399.794 4.92588 399.142 2.75 398.892L0 398.575V363.904L2.91992 362.886C6.0499 361.795 9.99995 358.348 10 356.708C10 356.158 8.73622 355.708 7.19141 355.708C5.64655 355.708 3.50951 355.07 2.44141 354.289C0.569406 352.921 0.48982 351.014 0.21582 300.683C0.041824 268.848 0.300932 248.05 0.87793 247.352C1.39892 246.72 2.15373 231.752 2.55469 214.087C3.23869 183.928 3.17481 181.905 1.50781 180.973C0.105068 180.187 -0.121298 179.27 0.430664 176.594C0.813661 174.732 1.45643 169.603 1.85742 165.198C2.25834 160.793 2.93055 156.63 3.35156 155.948C4.57856 153.962 6.9759 154.514 7.9209 156.999C8.3999 158.259 9.51448 159.889 10.3965 160.622C11.2783 161.354 12 163.073 12 164.441C12.0007 166.962 17.6675 176.707 19.1338 176.708C19.5718 176.708 21.5436 178.125 23.5166 179.857C25.6323 181.715 27.4688 182.637 27.9971 182.107C28.5151 181.586 28.6362 159.201 28.2852 128.872L27.6787 76.5361L25.3389 75.6475C22.1099 74.4195 22.329 71.1369 25.75 69.5049C28.437 68.2229 28.5182 67.931 29.2822 56.7012C30.9162 32.7102 30.725 33.564 35.209 30.208C37.494 28.499 40.6291 24.627 42.4961 21.208L45.7744 15.208L64.6836 8.62109C75.0846 4.99809 84.4729 1.5187 85.5469 0.887695ZM622.878 522.708C621.104 522.708 620.96 522.955 622 524.208C622.685 525.033 623.64 525.708 624.122 525.708C624.605 525.708 625 525.033 625 524.208C625 523.346 624.098 522.708 622.878 522.708ZM833.118 517.708C833.668 517.708 833.84 518.158 833.5 518.708C833.16 519.258 832.432 519.708 831.882 519.708C831.332 519.708 831.16 519.258 831.5 518.708C831.84 518.158 832.568 517.708 833.118 517.708ZM836.624 516.246C837.306 514.467 839.573 514.207 840.554 515.795C841.495 517.318 839.451 519.095 837.584 518.379C836.686 518.034 836.282 517.137 836.624 516.246ZM1151.66 506.379C1152.65 505.392 1150.15 505.706 1144.5 507.278C1141.75 508.043 1138.6 508.685 1137.5 508.704C1135.32 508.742 1132.27 510.333 1133.03 511.037C1133.62 511.58 1150.74 507.3 1151.66 506.379ZM1133 483.776C1132.18 483.766 1127.34 486.03 1122.25 488.806C1114.18 493.212 1111.12 495.708 1113.8 495.708C1114.23 495.708 1117.5 498.177 1121.05 501.194C1128.31 507.37 1131.79 508.214 1133.63 504.245C1134.26 502.886 1134.37 501.664 1133.87 501.497C1132.87 501.165 1137.41 496.188 1141.14 493.515L1143.5 491.822L1139 487.807C1136.53 485.6 1133.82 483.785 1133 483.776ZM808.445 495.972C810.734 494.058 812.135 493.63 814.739 494.053C820.043 494.914 824.328 501.601 820.515 503.064C817.937 504.053 801.333 505.008 798.607 504.324C797.174 503.964 796.001 503.153 796 502.522C796 501.891 796.281 501.655 796.624 501.998C797.437 502.812 804.684 499.117 808.445 495.972ZM771.388 499.05C775.017 495.929 777.886 496.098 781.787 499.661L785.021 502.614L781.76 503.109C770.814 504.771 769.96 504.768 769.307 503.066C768.882 501.957 769.583 500.603 771.388 499.05ZM840.122 500.612C841.94 499.46 843.301 499.492 846.651 500.765C848.878 501.612 849.14 502.008 847.966 502.75C845.924 504.041 840.261 503.939 839.431 502.596C839.053 501.985 839.364 501.092 840.122 500.612ZM987.527 495.724C982.74 492.985 981.487 492.72 973.878 492.835C969.27 492.905 962.8 493.319 959.5 493.755C950.606 494.931 948 496.169 948 499.215C948 500.681 948.713 502.044 949.671 502.412C950.591 502.765 958.034 502.256 966.213 501.281L981.083 499.509L986.637 501.763C991.079 503.566 992.353 503.755 993.003 502.704C994.347 500.528 993.063 498.891 987.527 495.724ZM1205.35 487.76C1204.33 487.788 1196.65 490.601 1188.27 494.01C1179.89 497.419 1173.03 500.537 1173.02 500.939C1173.01 501.341 1174.08 501.943 1175.41 502.275C1177.86 502.89 1206.28 495.671 1210.87 493.271L1213.25 492.022L1210.22 489.865C1208.55 488.679 1206.36 487.731 1205.35 487.76ZM525.557 493.648C529.566 489.464 534.09 489.585 537.105 493.958C538.337 495.746 540.505 498.204 541.923 499.422L544.5 501.636L540.615 501.672C534.441 501.729 523.842 499.459 523.265 497.956C522.976 497.204 524.008 495.265 525.557 493.648ZM1072 493.615C1072 492.427 1070.46 492.557 1065 494.206C1062.53 494.953 1057.87 496.317 1054.65 497.236C1048.49 498.997 1048.04 501.097 1053.86 500.931C1057.35 500.831 1072 494.924 1072 493.615ZM1246.14 484.619C1243.11 482.168 1237.99 482.24 1231.25 484.83C1225.72 486.957 1224.83 488.659 1227.08 492.862C1228.41 495.333 1229.8 495.051 1240.57 490.147L1248.5 486.531L1246.14 484.619ZM1186 484.666C1186 483.408 1179.19 483.549 1176 484.872C1174.62 485.442 1169.22 487.419 1164 489.265C1155.3 492.336 1154.85 492.624 1158.57 492.664C1160.81 492.688 1164.64 492.058 1167.07 491.263C1169.51 490.468 1174.76 488.874 1178.75 487.72C1182.74 486.567 1186 485.192 1186 484.666ZM1257.75 485.111C1255.47 484.585 1255 484.811 1255 486.417C1255 487.485 1256.02 489.314 1257.26 490.481C1259.51 492.595 1259.53 492.596 1263.76 490.705C1266.09 489.66 1268 488.393 1268 487.889C1268 487.384 1266.31 486.696 1264.25 486.36C1262.19 486.023 1259.26 485.461 1257.75 485.111ZM1051.06 473.796C1050.2 473.844 1045.28 475.896 1040.13 478.354L1030.76 482.825L1032.76 485.016C1033.85 486.222 1035.27 488.221 1035.91 489.458C1036.55 490.695 1037.91 491.708 1038.93 491.708C1041.49 491.708 1064 483.623 1064 482.698C1064 482.287 1062.7 481.413 1061.12 480.757C1059.53 480.1 1056.97 478.245 1055.43 476.635C1053.89 475.025 1051.92 473.748 1051.06 473.796ZM615.3 478.708C617.737 478.708 623 480.864 623 481.862C623.001 482.39 624.438 484.134 626.193 485.738C627.95 487.342 629.186 488.85 628.943 489.091C628.544 489.485 605.745 490.055 600.25 489.809C598.561 489.733 598 489.102 598 487.275C598 484.248 600.799 483.204 604.452 484.868C606.942 486.002 607.378 485.825 610.516 482.399C612.375 480.37 614.529 478.708 615.3 478.708ZM260 482.034C260 480.432 258.339 480.46 250.5 482.194C247.2 482.925 243.15 484.049 241.5 484.693L238.5 485.863L240.861 487.786C243.593 490.011 245.679 490.16 251.384 488.538C255.86 487.266 260 484.14 260 482.034ZM647.25 483.571C651.762 479.709 655.357 479.875 659.495 484.135C663.562 488.323 662.925 488.708 651.918 488.708C642.942 488.708 642.202 487.893 647.25 483.571ZM1113.3 476.208C1112.97 474.531 1110.73 474.665 1105.5 476.675C1102.75 477.73 1097.24 479.805 1093.25 481.284C1087.6 483.379 1086 484.412 1086 485.95C1086 487.6 1086.45 487.815 1088.75 487.256C1093.99 485.983 1113.5 477.204 1113.3 476.208ZM1378 471.896C1377.72 471.969 1376.01 472.212 1374.19 472.436C1372.23 472.678 1371.03 473.325 1371.26 474.026C1371.47 474.677 1376.94 478.071 1383.41 481.568C1392.19 486.313 1395.47 487.639 1396.32 486.792C1397.16 485.945 1396.31 484.647 1392.98 481.684C1390.51 479.499 1388.02 477.71 1387.43 477.709C1386.84 477.709 1384.59 476.371 1382.43 474.736C1380.27 473.102 1378.28 471.823 1378 471.896ZM1414.37 474.781C1411.05 472.174 1401.98 471.867 1399.57 474.279C1397.61 476.24 1397.63 476.669 1399.8 479.485C1401.38 481.537 1401.88 481.648 1404.85 480.609C1406.69 479.969 1410.12 479.727 1412.58 480.064C1416.47 480.598 1417 480.443 1417 478.761C1417 477.712 1415.81 475.92 1414.37 474.781ZM874.7 458.979C873.325 456.794 869.603 457.573 863.441 461.337C860.174 463.333 851.681 467.6 844.568 470.819C837.456 474.038 831.195 477.113 830.655 477.653C829.396 478.912 834.232 480.874 839 481.038C841.407 481.121 844.373 480.025 848.5 477.527C851.8 475.529 858.085 472.013 862.466 469.713C870.012 465.751 870.628 465.595 874.142 466.755C876.181 467.428 878.56 467.707 879.426 467.375C882.016 466.381 881.305 462.799 878.25 461.458C876.737 460.793 875.14 459.678 874.7 458.979ZM337.868 437.126C331.691 432.766 331.67 432.758 329.479 433.938C324.263 436.746 317.291 443.879 314.674 449.086C313.12 452.177 311.366 454.707 310.775 454.708C310.185 454.708 307.247 452.686 304.245 450.215L298.788 445.723L295.882 447.792C293.092 449.779 292.81 451.705 295.309 451.711C295.964 451.712 298.987 453.213 302.026 455.046C307.225 458.18 308.115 458.382 317.026 458.44C323.497 458.482 326.975 458.086 328 457.189C328.825 456.467 331.469 455.091 333.877 454.133C338.044 452.473 338.41 452.474 341.521 454.15C343.381 455.151 345.648 455.637 346.781 455.278C348.134 454.848 349.806 455.516 352.001 457.362C355.151 460.013 355.176 460.099 353.051 460.885C351.852 461.328 351.169 462.173 351.533 462.762C352.287 463.981 372.266 473.706 374.02 473.708C374.651 473.708 374.972 474.271 374.734 474.958C374.423 475.856 372.073 476.114 366.4 475.873C358.621 475.544 356.296 474.698 348.722 469.442C347.275 468.438 346.765 468.488 345.987 469.708C344.285 472.377 344.927 473.708 348.75 475.432C350.813 476.363 353.457 477.957 354.626 478.974C356.521 480.623 358.778 480.834 375.471 480.921C390.541 481 394.363 480.745 395.079 479.614C396.659 477.119 396.068 475.886 392.75 474.755C390.962 474.145 388.6 472.956 387.5 472.112C385.514 470.589 385.516 470.565 387.826 468.671C391.823 465.395 389.983 463.597 377.261 458.351C370.792 455.684 363.609 452.827 361.298 452.002C358.986 451.177 356.391 449.428 355.531 448.114C354.136 445.987 347.445 443.753 344.728 444.508C344.302 444.625 343.569 443.706 343.096 442.465C342.621 441.224 340.27 438.821 337.868 437.126ZM146.475 465.844C144.289 467.47 142.396 469.117 142.27 469.504C142.143 469.891 145.968 472.245 150.77 474.732C160.36 479.701 166 480.409 166 476.645C166 475.579 166.605 474.708 167.345 474.708C168.085 474.708 169.496 473.817 170.481 472.729C171.904 471.157 171.987 470.673 170.886 470.378C168.664 469.783 160.919 467.013 155.475 464.868L150.45 462.887L146.475 465.844ZM1029.45 456.073C1027.69 454.928 1026.85 455.034 1023.45 456.831C1021.28 457.98 1018.11 459.762 1016.42 460.793C1014.19 462.147 1011.28 462.692 1005.92 462.758C1000.1 462.83 995.859 463.722 986.25 466.899C979.513 469.127 974 471.329 974 471.793C974 473.393 981.471 477.708 984.242 477.708C985.769 477.708 990.764 475.683 995.342 473.208C1004.4 468.307 1007.29 467.818 1011.8 470.41C1014.61 472.022 1015.06 472.013 1020.31 470.227C1024.65 468.753 1026.17 468.602 1027.29 469.531C1028.4 470.455 1029.67 470.385 1032.99 469.213C1035.33 468.385 1039.19 467.708 1041.57 467.708C1043.94 467.708 1046.14 467.299 1046.44 466.8C1046.75 466.299 1043.52 463.982 1039.25 461.647C1034.99 459.314 1030.58 456.805 1029.45 456.073ZM1162.29 458.708C1161.85 458.708 1157.67 460.961 1153 463.715C1148.32 466.469 1143.71 468.974 1142.75 469.283C1141.27 469.756 1141.56 470.372 1144.64 473.275C1146.64 475.163 1148.69 476.708 1149.2 476.708C1150.48 476.707 1169.11 470.654 1171.26 469.542C1172.8 468.742 1172.4 468.017 1168.06 463.668C1165.33 460.94 1162.73 458.708 1162.29 458.708ZM1251.02 433.708C1250.54 433.708 1249.17 435.066 1247.99 436.726C1245.44 440.305 1230.76 452.783 1226.54 454.956C1224.39 456.066 1223 456.21 1221.41 455.487C1218.41 454.118 1199.55 462.464 1201.19 464.437C1201.77 465.135 1202.77 465.708 1203.42 465.708C1204.07 465.708 1207.37 467.508 1210.76 469.708C1214.14 471.908 1217.27 473.706 1217.71 473.704C1218.14 473.701 1220.53 472.327 1223 470.65C1233.19 463.747 1236.01 462.787 1244.27 463.412L1251.86 463.986L1258.18 459.466C1265.72 454.069 1273.7 447.08 1273 446.472C1271.5 445.167 1251.78 433.713 1251.02 433.708ZM1304.63 465.79C1300.81 463.425 1300.27 463.367 1297.5 465.017C1296.4 465.672 1295.2 466.623 1294.83 467.13C1294.08 468.179 1297.12 470.689 1301.38 472.535C1303.84 473.6 1304.53 473.534 1306.13 472.091C1308.81 469.66 1308.46 468.154 1304.63 465.79ZM225.8 443.727C225.633 443.738 223.136 445.342 220.25 447.292C217.363 449.242 215 451.265 215 451.788C215 453.168 220.637 456.423 227.234 458.853C233.395 461.12 236.243 463.375 233.863 464.098C233.113 464.326 230.303 465.082 227.618 465.777C223.087 466.951 222.871 467.145 224.618 468.474C225.653 469.262 228.472 470.771 230.881 471.828C235.555 473.878 238.008 473.759 247.831 471.011C250.763 470.19 255.225 469.224 257.748 468.863C263.742 468.006 264.443 465.962 259.039 465.098C255.93 464.601 254.109 463.485 251.573 460.522C249.729 458.368 246.707 455.83 244.86 454.884C243.012 453.938 239.475 451.775 237 450.077C232.945 447.294 226.567 443.679 225.8 443.727ZM610.5 462.067C616.563 460.24 622.107 460.466 626.016 462.699C627.932 463.794 631.75 465.873 634.5 467.319C640.735 470.598 640.756 470.618 638.971 471.747C636.29 473.442 623.609 472.82 616.88 470.663C613.371 469.538 609.712 468.821 608.75 469.07C607.567 469.375 606.951 468.903 606.85 467.614C606.768 466.566 606.655 465.16 606.6 464.49C606.545 463.82 608.3 462.73 610.5 462.067ZM1325.45 457.869C1322.36 456.459 1323.16 456.326 1319 458.936C1314.16 461.973 1313.69 462.942 1316.11 464.951C1318.61 467.033 1322.43 466.42 1325.75 463.402C1328.67 460.751 1328.59 459.299 1325.45 457.869ZM434.569 423.708C434.369 423.708 431.668 427.625 428.567 432.411L422.929 441.115L425.215 442.296C426.472 442.946 429.975 443.805 433 444.205C439.299 445.038 440.987 446.041 440.328 448.561C439.686 451.015 445.346 454.763 457.969 460.242C468.901 464.987 469.172 464.993 474.885 460.559C476.197 459.541 478.179 458.708 479.29 458.708C481.19 458.708 481.211 458.599 479.639 456.862C478.721 455.847 478.088 454.024 478.234 452.812C478.442 451.091 477.241 449.82 472.755 447.012L467.011 443.416L458.755 445.204C450.606 446.968 445.321 447.361 444.241 446.282C443.365 445.406 447.091 437.891 449.688 435.294L452.045 432.936L449.728 432.354C448.452 432.034 444.602 429.958 441.172 427.74C437.742 425.524 434.772 423.71 434.569 423.708ZM840.5 450.257C839.95 450.095 835.729 451.48 831.119 453.335C825.649 455.537 821.068 456.708 817.928 456.708C812.473 456.708 811.038 457.988 813.476 460.681C816.643 464.181 819.76 464.085 826.128 460.291C829.372 458.359 833.865 456.283 836.114 455.677C839.861 454.668 840.528 454.802 844.095 457.274C847.792 459.836 848.214 459.908 852.506 458.706C859.252 456.818 856.712 455.031 840.5 450.257ZM1444.79 446.376C1440.67 442.79 1437 441.59 1437 443.83C1437 444.606 1436.54 444.568 1435.5 443.708C1434.55 442.923 1434 442.856 1434 443.527C1434 444.111 1434.45 444.868 1435 445.208C1436.72 446.269 1436.09 448.708 1434.11 448.708C1433.07 448.708 1431.95 449.383 1431.64 450.208C1431.32 451.033 1430.43 451.708 1429.65 451.708C1428.88 451.708 1427.69 452.383 1427 453.208C1425.95 454.475 1426.15 454.708 1428.32 454.708C1429.73 454.708 1431.16 454.258 1431.5 453.708C1432.3 452.417 1436.73 452.405 1437.17 453.693C1437.38 454.327 1438.77 454.287 1441.06 453.582C1444.35 452.573 1445 452.748 1449.31 455.79C1451.89 457.607 1454 459.681 1454 460.401C1454 461.819 1454.16 461.884 1458.25 462.133C1459.76 462.226 1461 462.006 1461 461.647C1461 461.287 1458.3 459.326 1455 457.289C1451.32 455.017 1449 452.902 1449 451.814C1449 450.84 1447.1 448.393 1444.79 446.376ZM58.9707 458.512C51.1998 453.491 44.3238 451.739 39.6289 453.584C37.882 454.27 37.9159 454.422 40.1289 455.862C44.8478 458.933 55.5642 461.265 57.9707 459.746C58.7797 459.235 59.2297 458.68 58.9707 458.512ZM96.2402 417.332C91.8463 415.06 88.3092 415.308 85.5352 418.082C84.0622 419.555 82.8921 422.244 82.4551 425.161C81.5991 430.87 80.185 431.589 71.0361 430.964C62.9225 430.411 59.0004 431.745 59 435.061C59 439.186 61.4663 440.196 71.9033 440.347C86.1321 440.554 90.5801 442.068 107.958 452.623C118.115 458.792 123.719 460.763 125.063 458.64C126.515 456.346 126.321 456.14 119.548 452.806C112.776 449.472 105.377 443.909 105.455 442.208C105.48 441.658 107.075 441.208 109 441.208C112.338 441.208 112.515 441.03 112.816 437.366C113.105 433.849 113.337 433.576 115.566 434.135C117.179 434.54 118.014 434.318 118.042 433.477C118.066 432.779 119.576 433.896 121.398 435.958C126.551 441.789 127.391 440.4 123.361 432.708C121.347 428.862 119.563 425.714 119.396 425.708C119.232 425.708 116.506 426.383 113.339 427.208C105.285 429.306 104.028 429.129 99.5 425.264C95.8944 422.186 95.5985 421.829 97.1133 420.65L97.7676 420.156C99.2929 418.989 99.0771 418.799 96.2402 417.332ZM1136.93 441.343C1134.06 437.702 1128.9 437.72 1125.23 441.384C1123.52 443.095 1123 444.207 1123.78 444.467C1124.45 444.691 1125 445.714 1125 446.74C1125 448.048 1123.09 449.515 1118.63 451.645C1112.38 454.628 1109.16 457.203 1110.28 458.322C1110.59 458.632 1115.27 456.692 1120.67 454.01C1126.08 451.327 1132.41 448.397 1134.75 447.5C1139.59 445.644 1139.81 445.009 1136.93 441.343ZM206.559 445.208C204.705 443.776 201.033 443.487 196.323 444.404C193.358 444.981 192.109 446.718 191.778 450.721C191.518 453.88 191.789 454.209 196 455.848C200.708 457.68 208 458.305 208 456.877C208 456.42 206.875 455.444 205.5 454.708C202.272 452.981 202.34 451.375 205.75 448.791C208.431 446.76 208.451 446.67 206.559 445.208ZM1237.25 412.831C1236.29 412.899 1233.35 414.136 1230.71 415.581C1228.08 417.026 1225.27 419.497 1224.46 421.072C1222.79 424.348 1222.37 431.228 1224 428.708C1224.76 427.533 1224.97 427.786 1224.99 429.875C1224.99 431.341 1225.53 432.717 1226.18 432.934C1228.15 433.593 1226.17 435.513 1222.74 436.254C1220.96 436.639 1217.38 438.024 1214.78 439.331C1212.19 440.638 1209.13 441.708 1207.98 441.708C1205.55 441.708 1178.96 450.577 1177.54 451.862C1176.94 452.401 1177.36 453.514 1178.65 454.797L1180.71 456.864L1195.61 452.662C1203.8 450.35 1211.62 447.895 1213 447.205C1214.77 446.316 1215.97 446.253 1217.12 446.989C1218.4 447.817 1220.45 446.685 1227.21 441.404C1231.88 437.76 1236.32 434.024 1237.09 433.1C1238.34 431.587 1238.25 431.494 1236.14 432.164C1233.86 432.888 1233.81 432.784 1234.48 428.559C1235.54 421.793 1236.96 416.85 1238.03 416.191C1239.67 415.173 1239.1 412.701 1237.25 412.831ZM1427.17 449.022C1429.3 446.763 1428.48 446.07 1425.23 447.377C1424.09 447.837 1421 452.786 1421 454.158C1421 454.461 1421.9 454.708 1423 454.708C1424.21 454.708 1425 454.041 1425 453.022C1425 452.096 1425.98 450.295 1427.17 449.022ZM1098.41 411.193C1097.73 408.493 1097.53 408.418 1094.39 409.688C1092.28 410.539 1082 420.426 1082 421.594C1082.01 421.932 1084.75 424.423 1088.1 427.131L1094.19 432.053L1091.46 433.481C1088.21 435.188 1086.34 434.512 1080.24 429.413L1075.98 425.853L1065.49 431.28C1059.72 434.266 1054.33 436.708 1053.5 436.708C1051.46 436.708 1051.6 439.065 1053.75 440.872C1054.71 441.683 1058.82 444.279 1062.87 446.641L1070.23 450.936L1075.87 446.971C1078.97 444.79 1083.07 442.203 1085 441.221C1093.37 436.955 1110.9 425.394 1114.21 421.957C1116.2 419.895 1118.51 416.521 1119.36 414.458C1120.82 410.89 1120.8 410.708 1118.97 410.708C1117.91 410.708 1114.13 411.663 1110.58 412.83C1102.98 415.324 1099.32 414.831 1098.41 411.193ZM1388.41 380.458C1387.86 378.699 1385.91 378.133 1384.67 379.375C1384.3 379.741 1384 381.74 1384 383.816C1384 385.892 1383.52 387.887 1382.93 388.249C1382.35 388.611 1379.2 388.908 1375.93 388.908C1372.67 388.908 1369.73 389.337 1369.41 389.862C1369.08 390.388 1369.13 395.459 1369.52 401.133C1370.21 411.358 1370.25 411.463 1373.24 412.879C1375.88 414.129 1376.28 414.865 1376.43 418.758C1376.52 421.206 1376.96 423.996 1377.41 424.958C1378.48 427.285 1374.91 427.354 1371.43 425.073C1368.49 423.142 1368.46 423.162 1366.79 428.21C1365.73 431.436 1364.92 432.249 1362.24 432.796C1359.25 433.405 1358.45 432.962 1352.89 427.604C1343.44 418.497 1329.19 411.529 1321.07 412.044C1315.52 412.397 1316.44 414.23 1324.21 418.227C1331.74 422.11 1334.76 424.241 1346.28 433.848C1356.25 442.159 1367.52 449.708 1369.96 449.708C1372.82 449.708 1376.76 447.586 1381.93 443.269C1385.38 440.381 1387.01 439.708 1390.56 439.708C1397.76 439.708 1398.35 436.728 1394.87 417.801C1392.71 406.033 1391.16 402.708 1387.84 402.708C1385.69 402.708 1385.37 400.888 1387.39 400.111C1388.42 399.716 1388.8 397.328 1388.87 390.893C1388.91 386.116 1388.71 381.42 1388.41 380.458ZM1493.43 441.269C1493.83 442.883 1494.24 444.205 1494.33 444.206C1494.42 444.207 1495.47 444.745 1496.64 445.4C1497.82 446.056 1500.52 447.293 1502.64 448.147L1506.5 449.702L1503.84 447.455C1502.37 446.219 1499.27 443.661 1496.93 441.771L1492.69 438.334L1493.43 441.269ZM397.065 430.831C391.789 428.561 390.699 428.342 389.694 429.347C388.651 430.39 389.972 431.708 392.059 431.708C396.318 431.708 393.432 433.433 381.446 438.051C373.979 440.927 369.047 443.357 369.272 444.047C369.482 444.686 371.302 445.624 373.319 446.133C376.483 446.931 378.254 446.543 386.243 443.302C396.218 439.255 401.982 435.88 401.993 434.081C401.997 433.461 399.779 431.999 397.065 430.831ZM1464.62 437.362C1463.05 438.709 1461.93 439.914 1462.13 440.042C1465.7 442.306 1467.94 442.808 1469.88 441.775C1472.5 440.368 1472.5 440.354 1469.73 437.363L1467.46 434.914L1464.62 437.362ZM1296.1 434.295C1294.46 432.811 1294.24 432.88 1293.16 435.248C1291.93 437.961 1291.63 440.708 1292.57 440.708C1293.91 440.708 1296.81 438.646 1297.32 437.33C1297.62 436.541 1297.07 435.176 1296.1 434.295ZM92.9531 343.208C89.5161 334.479 88.0336 333.074 85.2236 335.884C84.3647 336.743 84.3445 337.418 85.1465 338.384C85.9914 339.402 85.812 339.71 84.3721 339.718C81.6901 339.732 72 344.412 72 345.693C72.0004 348.069 75.5451 347.937 80.4307 345.378C83.2357 343.91 86.0154 342.708 86.6064 342.708C87.6689 342.716 101.7 370.89 109.134 387.94C116.705 405.306 118.83 408.404 122.004 406.706C124.827 405.195 124.967 405.273 130.935 411.697L136.5 417.687L141.313 416.226L146.126 414.766L147.531 418.127C148.516 420.487 151.253 423.051 156.717 426.733C166.535 433.35 168.818 435.426 169.197 438.082C169.479 440.058 169.993 440.182 176.5 439.854C180.35 439.66 183.867 439.279 184.315 439.006C186.144 437.892 181.629 434.926 177.372 434.446C171.906 433.83 170.887 432.951 170.668 428.665C170.52 425.786 169.405 424.547 161.517 418.498C154.426 413.06 152.035 411.733 150.169 412.202C148.547 412.609 147.933 412.407 148.215 411.562C148.443 410.884 154.225 408.03 161.063 405.22C175.437 399.313 180.829 396.794 181.534 395.654C181.809 395.208 179.327 391.792 176.017 388.064C172.708 384.337 170 380.93 170 380.497C170 380.063 169.315 379.708 168.478 379.708C166.596 379.709 151.149 387.355 148.75 389.473C146.565 391.402 146.49 395.487 148.598 397.816C150.586 400.013 149.716 401.511 145.41 403.31C139.43 405.809 138.572 405.329 135.149 397.579C131.4 389.092 131.298 387.947 134.25 387.528C136.346 387.23 136.209 386.919 132.25 382.998C129.912 380.682 128 378.319 128 377.748C128 375.593 124.94 376.845 120.793 380.696C118.432 382.889 115.98 384.689 115.344 384.696C114.708 384.702 112.771 382.57 111.038 379.958C107.52 374.655 96.5922 352.447 92.9531 343.208ZM1426.02 386.984C1424.38 386.861 1423.49 387.729 1422.38 390.515C1421.57 392.546 1420.56 395.108 1420.12 396.208C1419.69 397.308 1418.39 400.908 1417.24 404.208C1414.21 412.905 1410.82 420.685 1408.25 424.826C1405.67 428.971 1405.1 436.708 1407.36 436.708C1409.08 436.706 1418.39 418.679 1420.37 411.54C1421.18 408.607 1423.04 403.352 1424.5 399.862C1425.96 396.372 1427.39 392.084 1427.67 390.332C1428.12 387.604 1427.88 387.125 1426.02 386.984ZM283.398 416.995C282.792 416.8 280.588 418.725 278.5 421.273C276.35 423.897 275.131 426.189 275.689 426.557C286.12 433.446 287.015 433.864 289.971 433.214C291.637 432.848 292.989 432.247 292.975 431.879C292.924 430.497 284.457 417.34 283.398 416.995ZM1281.28 427.294C1282.5 420.025 1280.73 418.797 1275.5 423.266C1273.3 425.145 1269.93 427.192 1268 427.816C1262.69 429.537 1262.26 430.5 1266.1 432.104C1268.51 433.111 1271.19 433.344 1275 432.876L1280.46 432.208L1281.28 427.294ZM303.567 411.708C303.255 411.708 303.001 413.396 303.001 415.458C303.002 417.888 303.794 420.146 305.251 421.874C306.488 423.34 308.283 425.478 309.24 426.624C310.197 427.77 312.11 428.708 313.49 428.708C315.566 428.708 316 428.228 316 425.937C316 423.863 314.506 421.721 310.067 417.437C306.806 414.287 303.881 411.71 303.567 411.708ZM1157.29 425.362C1166.74 415.309 1168.13 411.805 1161.5 414.725C1152.04 418.894 1145.97 420.991 1143.08 421.09C1138.03 421.264 1138.25 423.282 1143.57 425.635C1149.88 428.426 1154.5 428.334 1157.29 425.362ZM579.416 425.314C578.443 424.941 577.986 425.164 578.229 425.895C578.727 427.389 580.999 428.213 581 426.898C581 426.361 580.287 425.649 579.416 425.314ZM398.363 420.161C397.108 419.793 395.907 420.05 395.454 420.783C394.441 422.422 397.575 424.918 402.821 426.649C406.157 427.75 407.225 427.766 408.468 426.735C411.086 424.562 410.181 423.227 405.25 421.985C402.637 421.327 399.538 420.506 398.363 420.161ZM263.826 374.514C263.363 371.267 261.536 371.494 252.706 375.894C245.866 379.301 244.491 379.661 241.48 378.83C239.594 378.309 237.139 378.121 236.024 378.412C233.894 378.969 233.303 381.159 235 382.208C237.027 383.461 235.904 387.026 232.5 390.144C230.575 391.906 229.001 393.836 229 394.431C229 395.833 223.586 397.708 219.54 397.708H216.379L219.536 404.21C221.273 407.786 223.448 411.544 224.369 412.562C227.072 415.549 235.826 419.897 237.847 419.257C239.02 418.884 241.051 419.762 243.479 421.691C245.567 423.35 247.602 424.708 248.003 424.708C248.403 424.708 251.378 422.909 254.615 420.71C258.21 418.269 261.656 416.712 263.471 416.71C268.036 416.707 276.999 414.381 277 413.2C277 412.621 273.738 410.491 269.75 408.467C265.762 406.444 260.355 403.565 257.732 402.07L252.963 399.351L249.732 402.479C244.344 407.694 234.565 410.673 231.826 407.934C231.052 407.16 231.945 406.531 234.976 405.714L239.207 404.575L238.566 400.299L237.925 396.022L247.28 389.853C259.695 381.667 264.244 377.45 263.826 374.514ZM593.066 406.743C589.391 404.777 588.3 405.501 587.636 410.348C586.579 418.059 586.88 420.247 589.314 422.534C592.699 425.713 593.654 425.247 594.364 420.068C595.528 411.578 595.167 407.868 593.066 406.743ZM355.747 412.536C350.559 406.42 346 403.857 346 407.056C346 409.516 349.602 417.131 351.517 418.722C352.501 419.539 354.25 420.254 355.403 420.31C356.556 420.365 358.119 420.59 358.875 420.81C362.014 421.719 360.789 418.481 355.747 412.536ZM39.4521 401.708C38.8242 401.708 37.5653 402.531 36.6553 403.537C35.7454 404.543 35.0003 405.921 35 406.602C35 407.608 48.5001 414.708 50.4121 414.708C50.7105 414.707 48.625 411.782 45.7754 408.208C42.9266 404.633 40.0815 401.708 39.4521 401.708ZM1272 407.512C1272 406.653 1270.62 406.417 1269.89 407.15C1269.64 407.394 1266.57 408.056 1263.05 408.622C1253.16 410.216 1252.38 412.751 1261.33 414.263C1264.77 414.845 1265.56 414.559 1268.59 411.616C1270.47 409.801 1272 407.954 1272 407.512ZM334.727 402.708C334.594 402.711 333.857 404.135 333.087 405.874C331.755 408.884 331.82 409.156 334.398 411.374C336.863 413.494 340 414.503 340 413.175C339.999 412.515 335.059 402.708 334.727 402.708ZM528.658 387.839C527.92 387.227 527.02 387.021 526.658 387.383C526.296 387.745 526 392.691 526 398.375C526 408.041 526.129 408.708 528 408.708C529.865 408.708 530 408.041 530 398.83C530 391.787 529.615 388.633 528.658 387.839ZM267.296 382.74C266.858 382.759 264.142 384.48 261.259 386.564C258.377 388.65 255.755 390.62 255.433 390.941C254.64 391.741 262.745 399.099 270.196 404.346L276.299 408.644L280.9 404.787C290.371 396.847 290.533 397.902 278.599 389.821C272.82 385.909 267.734 382.723 267.296 382.74ZM944.114 357.771C943.776 357.806 942.487 358.242 941.25 358.739C939.041 359.627 939 359.954 939 376.509C939 385.784 939.263 393.637 939.585 393.96C939.907 394.281 941.482 394.087 943.085 393.529L946 392.512V379.75C946 366.751 945.22 357.658 944.114 357.771ZM1120.01 363.708C1119.01 363.708 1117.26 365.17 1116.11 366.958C1114.97 368.746 1111.97 372.618 1109.46 375.564C1103.86 382.127 1103.95 384.145 1110 387.819C1116.7 391.887 1117.61 391.629 1118.34 385.458C1118.87 381.022 1119.59 379.615 1122.98 376.383C1125.19 374.279 1127 371.951 1127 371.21C1127 369.07 1122 363.708 1120.01 363.708ZM969 371.208C969 381.383 969.337 389.693 969.75 389.675C970.163 389.656 971.513 388.797 972.75 387.764C974.9 385.971 975 385.22 975 370.879C975 362.625 974.727 355.16 974.393 354.29C974.059 353.42 972.708 352.708 971.393 352.708H969V371.208ZM198.686 373.882C196.259 371.603 194.473 371.134 193.599 372.548C193.08 373.387 196.167 379.569 199 383.366C200.275 385.074 201.251 385.289 205.5 384.792C211.682 384.07 212.133 381.975 206.524 380.033C201.561 378.314 200.033 376.924 201.865 375.791C202.806 375.21 202.879 374.751 202.107 374.274C201.498 373.898 201 374.145 201 374.823C201 375.53 200.011 375.128 198.686 373.882ZM428.174 359.888C426.06 359.578 426 359.858 426 370.066C426 380.215 426.087 380.632 428.635 382.635C433.437 386.413 434.007 385.64 433.927 375.458C433.846 365.234 432.083 360.463 428.174 359.888ZM255.452 357.708C253.812 357.708 253.822 357.863 255.595 359.958C261.194 366.571 261.772 366.902 269.221 367.775C273.224 368.243 282.741 370.445 290.37 372.668C297.998 374.89 304.782 376.708 305.445 376.708C306.109 376.708 307.731 375.559 309.049 374.155C311.075 371.999 311.219 371.455 309.974 370.652C307.584 369.109 299.763 366.967 284.669 363.72C276.876 362.043 267.512 360.005 263.857 359.19C260.204 358.375 256.421 357.708 255.452 357.708ZM409.37 355.075C407.649 354.374 405.962 354.08 405.62 354.421C405.279 354.762 405 359.422 405 364.777V374.512L408.149 375.61C409.881 376.214 411.696 376.708 412.184 376.708C412.671 376.708 412.942 372.127 412.785 366.529L412.5 356.35L409.37 355.075ZM31.5 353.409C18.7107 344.36 17.0002 343.319 17 344.593C17 345.206 16.325 345.708 15.5 345.708C13.211 345.708 13.7081 347.411 16.5801 349.411C17.9992 350.399 21.9372 353.629 25.3301 356.587C28.7241 359.546 35.0582 364.682 39.4072 368.002L47.3154 374.037L49.1572 371.762C50.1709 370.51 50.9997 369.113 51 368.656C51 367.7 44.3739 362.519 31.5 353.409ZM1075.6 369.039C1074.46 359.908 1071.93 355.124 1070.38 359.171C1069.65 361.053 1072.78 370.751 1074.74 372.708C1076.07 374.042 1076.17 373.636 1075.6 369.039ZM301.729 347.708C297.278 347.708 295.791 348.088 295.306 349.353C294.492 351.473 296.979 353.286 301.771 354.065C305.109 354.609 310.731 357.566 324.195 365.86C326.563 367.319 329.962 368.817 331.75 369.189C334.813 369.828 334.999 369.704 334.985 367.037C334.976 365.481 334.639 363.723 334.235 363.13C333.831 362.537 327.655 358.825 320.51 354.88C308.601 348.305 307.039 347.708 301.729 347.708ZM1281.58 310.028C1277.95 306.903 1276.71 307.086 1272.7 311.335C1270.29 313.89 1268.32 317.806 1266.03 324.585C1264.24 329.878 1260.96 338.224 1258.75 343.133C1255.53 350.305 1254.91 352.563 1255.64 354.633C1256.9 358.223 1260.72 358.684 1261.55 355.347C1262.39 352.033 1265.51 349.307 1267.57 350.097C1268.86 350.59 1269.08 351.497 1268.57 354.214C1268.03 357.042 1268.34 358.138 1270.21 360.024C1272.75 362.604 1277.45 365.707 1278.81 365.708C1279.29 365.708 1280 354.801 1280.38 341.471C1280.95 321.777 1281.38 316.776 1282.68 314.791C1284.21 312.459 1284.16 312.241 1281.58 310.028ZM1466.66 290.252C1465.59 307.736 1465.84 328.491 1467.14 329.293C1468.75 330.291 1471.78 325.896 1472.54 321.458C1472.89 319.396 1473.52 317.708 1473.95 317.708C1475.32 317.709 1475.82 327.927 1475 339.208C1474.2 350.155 1474.52 353.323 1476.12 350.466C1477.53 347.936 1479.52 282.843 1478.23 281.536C1477.62 280.925 1474.91 280.214 1472.22 279.955L1467.32 279.484L1466.66 290.252ZM434.25 329.761C427.933 328.006 428 327.928 428 337.099V345.491L432.066 347.118C434.302 348.012 436.552 348.485 437.066 348.167C437.58 347.849 438 343.812 438 339.196V330.802L434.25 329.761ZM1247.01 324.958C1247.03 334.959 1248.3 339.027 1251.56 339.5C1253.22 339.74 1254.15 338.391 1256.85 331.786C1263.18 316.292 1263.05 315.708 1253.3 315.708H1247L1247.01 324.958ZM1451.33 318.58C1449.81 317.332 1449.72 317.521 1450.35 320.677C1451.3 325.455 1453 326.967 1453 323.03C1453 321.338 1452.25 319.335 1451.33 318.58ZM1456 312.849C1456 307.779 1453.99 305.862 1450.25 307.37C1448.38 308.123 1448.72 309.83 1451.55 314.002C1454.55 318.417 1456 318.042 1456 312.849ZM1161.8 278.908C1160.49 277.603 1154.08 277.239 1153.87 278.458C1153.61 280.007 1154.21 305.214 1154.52 305.542C1154.69 305.726 1156.67 306.123 1158.92 306.424L1163 306.971V293.54C1163 284.426 1162.61 279.722 1161.8 278.908ZM168.378 257.708C167.255 257.708 167 261.296 167 277.103V296.498L171.052 296.884C173.28 297.097 175.305 297.069 175.552 296.823C176.234 296.141 176.087 264.097 175.393 262.29C175.059 261.42 174.214 260.708 173.515 260.708C172.817 260.708 171.685 260.033 171 259.208C170.315 258.383 169.135 257.708 168.378 257.708ZM318.646 268.473C316.247 266.935 316 268.058 316 280.508C316 293.005 316.613 295.707 319.45 295.708C320.948 295.707 320.172 269.454 318.646 268.473ZM1192.23 262.344C1192.46 286.422 1192.7 290.183 1194 290.026C1194.82 289.927 1198.09 289.332 1201.25 288.706L1207 287.566V266.196C1207 254.443 1206.61 244.584 1206.13 244.288C1205.65 243.992 1205 242.475 1204.69 240.918C1204.08 237.874 1201.56 236.279 1195.57 235.156L1191.97 234.479L1192.23 262.344ZM121.007 262.458C121.011 269.471 121.303 278.269 121.657 282.009L122.299 288.811L125.899 288.509L129.5 288.208L129.772 268.958L130.043 249.708H121L121.007 262.458ZM1399.54 237.16C1392.7 234.303 1393 233.37 1393 257.543V279.379L1398.47 280.903C1401.48 281.741 1404.18 282.19 1404.47 281.9C1405.44 280.934 1405.01 243.876 1404.01 241.225C1403.42 239.687 1401.58 238.014 1399.54 237.16ZM1476.5 263.039C1475.95 262.859 1474.18 264.8 1472.57 267.353L1469.63 271.994L1471.93 273.851C1473.19 274.872 1475.09 275.708 1476.16 275.708C1477.9 275.708 1478.06 275.077 1477.8 269.537C1477.63 266.144 1477.05 263.219 1476.5 263.039ZM1285.37 252.566C1286.03 235.026 1285.72 228.893 1284.62 237.866C1283.65 245.854 1283.1 270.708 1283.9 270.708C1284.33 270.703 1284.99 262.541 1285.37 252.566ZM1344.44 218.046C1343.21 217.575 1343 221.05 1343 241.601V265.708L1346.25 265.743C1348.04 265.763 1350.62 266.422 1352 267.208C1353.38 267.994 1354.84 268.653 1355.25 268.673C1356.22 268.718 1356.21 223.575 1355.24 222.061C1354.83 221.431 1352.56 220.393 1350.19 219.756C1347.82 219.119 1345.23 218.349 1344.44 218.046ZM313 243.798C313 239.567 312.473 238.837 309.852 239.438C308.533 239.74 308.311 240.652 308.74 244.012C309.374 248.985 309.464 249.128 311.457 248.363C312.489 247.967 313 246.456 313 243.798ZM1289.75 165.824C1289.06 165.888 1287.6 166.141 1286.5 166.388C1280.14 167.81 1272.09 171.025 1271.59 172.342C1270.52 175.128 1270.98 189.48 1272.46 199.418C1273.26 204.802 1274.19 213.111 1274.54 217.881C1275.34 228.945 1276.14 230.11 1282.3 229.185L1287 228.481V217.13C1287 206.802 1287.18 205.682 1289 204.708C1290.89 203.695 1291 202.614 1291 184.673C1291 170.106 1290.71 165.735 1289.75 165.824ZM1249.79 159.979C1244.84 159.582 1243.19 159.785 1242.8 160.834C1242.52 161.59 1242.65 168.733 1243.08 176.708C1243.52 184.683 1243.9 195.976 1243.94 201.803C1243.99 210.572 1244.3 212.67 1245.75 213.974C1250.04 217.833 1266.45 224.409 1267.51 222.693C1268.12 221.704 1266.45 209.588 1265.03 204.731C1263.97 201.102 1264.47 197.708 1266.07 197.708C1267.32 197.705 1267.26 181.341 1265.98 174.594C1265.16 170.27 1264.11 168.35 1260.61 164.853C1256.57 160.804 1255.81 160.462 1249.79 159.979ZM27.75 191.965C26.0359 190.611 18.5469 189.752 16.9668 190.728C15.9598 191.35 15.8238 194.85 16.3398 206.783C16.7028 215.175 17.243 222.285 17.54 222.581C18.1524 223.193 24.6061 220.049 27.25 217.853C28.7338 216.619 29 214.618 29 204.675C29 196.491 28.623 192.655 27.75 191.965ZM126.354 175.16C123.06 172.108 121.182 172.042 120.551 174.958C120.283 176.195 120.387 184.616 120.782 193.669L121.5 210.131L124.716 210.786C126.485 211.147 128.172 211.202 128.466 210.908C128.76 210.615 129 203.003 129 193.994V177.613L126.354 175.16ZM92.4561 180.958C92.833 191.544 93.3514 200.946 93.6055 201.853C94.0465 203.418 100.613 205.428 101.708 204.333C101.985 204.056 101.882 194.352 101.479 182.769L100.745 161.708H91.7686L92.4561 180.958ZM1419.17 160.708C1418.59 160.708 1417.86 161.118 1417.55 161.618C1417.25 162.121 1416.77 168.084 1416.49 174.868C1415.99 186.971 1416.02 187.141 1417.66 183.708C1419.65 179.561 1420.89 160.708 1419.17 160.708ZM1204.18 127.202C1200.23 122.185 1194.67 119.372 1192.67 121.375C1192.3 121.741 1192 133.666 1192 147.875C1192 177.121 1191.13 174.793 1201.07 172.029L1207.11 170.349L1206.81 150.251C1206.51 130.967 1206.41 130.034 1204.18 127.202ZM1344.9 110.774C1344.57 110.738 1344.01 114.827 1343.65 119.862C1343.29 124.896 1343 135.046 1343 142.418V155.82L1347.25 157.657C1349.59 158.667 1352.52 159.8 1353.77 160.175L1356.04 160.854L1355.77 138.629L1355.5 116.402L1350.5 113.622C1347.75 112.093 1345.23 110.812 1344.9 110.774ZM1290.75 151.821C1290.61 151.884 1287.93 152.857 1284.79 153.985C1279.59 155.855 1277.34 157.818 1278.4 159.548C1278.62 159.911 1281.55 160.056 1284.9 159.869L1291 159.53V155.619C1291 153.468 1290.89 151.759 1290.75 151.821ZM130.144 89.3936C129.391 87.4874 121.583 83.4592 120.581 84.46C120.262 84.78 120 95.1072 120 107.41V129.779L124.59 131.747C127.114 132.829 129.589 133.461 130.09 133.152C131.153 132.495 131.203 92.0796 130.144 89.3936ZM101.895 72.0811C100.779 70.7382 97.3545 70.463 93.6406 71.418C91.878 71.8721 91.8015 73.2095 92.1465 97.2236C92.3465 111.154 92.7329 122.766 93.0049 123.029C93.2774 123.291 95.5253 123.663 98 123.857L102.5 124.208L102.767 98.8311C102.956 80.9491 102.698 73.0491 101.895 72.0811Z" fill="#E7791D"/>
</svg>
